<?xml version="1.0" encoding="UTF-8" standalone="no"?>
<!-- Created with Inkscape (http://www.inkscape.org/) -->

<svg
   width="164.54053"
   height="38.639347"
   viewBox="0 0 164.54053 38.639347"
   version="1.1"
   id="svg1"
   xml:space="preserve"
   inkscape:version="1.4.1-rc (06eac75fbf, 2025-03-29)"
   sodipodi:docname="astro-logo.svg"
   inkscape:export-filename="astro-logo.svg"
   inkscape:export-xdpi="150"
   inkscape:export-ydpi="150"
   xmlns:inkscape="http://www.inkscape.org/namespaces/inkscape"
   xmlns:sodipodi="http://sodipodi.sourceforge.net/DTD/sodipodi-0.dtd"
   xmlns="http://www.w3.org/2000/svg"
   xmlns:svg="http://www.w3.org/2000/svg"><sodipodi:namedview
     id="namedview1"
     pagecolor="#ffffff"
     bordercolor="#000000"
     borderopacity="0.25"
     inkscape:showpageshadow="2"
     inkscape:pageopacity="0.0"
     inkscape:pagecheckerboard="0"
     inkscape:deskcolor="#d1d1d1"
     inkscape:document-units="px"
     inkscape:zoom="2.6958446"
     inkscape:cx="110.5405"
     inkscape:cy="45.625775"
     inkscape:window-width="1366"
     inkscape:window-height="699"
     inkscape:window-x="0"
     inkscape:window-y="32"
     inkscape:window-maximized="1"
     inkscape:current-layer="g1"><inkscape:page
       x="0"
       y="0"
       width="164.54053"
       height="38.639347"
       id="page2"
       margin="0"
       bleed="0" /></sodipodi:namedview><defs
     id="defs1" /><g
     inkscape:label="Layer 1"
     inkscape:groupmode="layer"
     id="layer1"
     transform="translate(-4.7468838,6.5327883)"><g
       id="g1"
       transform="matrix(0.04847387,0,0,0.04208304,4.7468838,0.41803108)"><path
         d="m 271.24551,-165.16914 c 1.1499,0.60357 1.1499,0.60357 2.32302,1.21934 3.61642,83.330962 -4.00729,160.1217165 -38.32994,236.553542 -0.40127,0.908902 -0.80254,1.817805 -1.21597,2.754252 -10.77476,24.25159 -24.11291,47.828466 -39.29182,69.334936 -3.31922,4.72072 -6.37273,9.60783 -9.45091,14.50358 -2.41953,3.8125 -4.89737,7.57671 -7.39104,11.33613 -1.79364,2.71598 -3.58331,5.43482 -5.372,8.15439 -0.86842,1.31875 -1.73682,2.63751 -2.63156,3.99622 -32.44788,49.85274 -59.44827,105.32546 -48.44328,167.29361 7.92197,40.47268 30.00537,75.26889 51.34696,109.18346 28.41587,45.17261 52.04019,91.93811 63.61113,145.07921 0.2257,1.02247 0.45142,2.04493 0.68398,3.09839 2.97958,13.83283 4.66098,27.7682 5.99472,41.86507 0.14851,1.54982 0.29702,3.09962 0.45003,4.69639 0.94111,10.72377 1.16565,21.27853 1.00186,32.03647 -2.32302,-1.21935 -2.32302,-1.21935 -3.41194,-4.53445 -0.40726,-1.52151 -0.81451,-3.04304 -1.23411,-4.61066 -12.18261,-43.00514 -32.74237,-83.59154 -60.93239,-117.33367 -2.45028,-2.96311 -4.07803,-5.10262 -5.27389,-8.86886 -0.76659,0 -1.53319,0 -2.32302,0 -1.58172,-2.00401 -3.12403,-4.04242 -4.64606,-6.09674 -1.03012,-1.05626 -2.06023,-2.11252 -3.12156,-3.20079 -2.68601,-2.89595 -2.68601,-2.89595 -3.84752,-6.554 -1.1499,-0.40238 -2.2998,-0.80477 -3.48454,-1.21934 -2.89565,-2.74327 -5.32671,-5.05745 -7.04168,-8.76407 -1.43042,-2.90319 -2.97183,-3.21942 -5.73497,-4.64876 -1.36719,-1.09492 -2.69875,-2.24045 -3.9927,-3.42942 -0.64533,-0.58629 -1.29064,-1.17257 -1.95551,-1.77663 -2.74412,-2.65315 -5.35205,-5.43753 -7.98995,-8.20678 -7.62759,-7.57146 -15.41573,-14.78459 -23.5978,-21.69106 -4.27159,-3.69448 -8.344612,-7.59942 -12.413672,-11.53618 -2.184343,-2.19217 -2.184343,-2.19217 -4.641513,-3.35321 0,-0.80477 0,-1.60954 0,-2.43869 -0.619865,-0.26249 -1.23973,-0.52499 -1.878389,-0.79543 -3.788845,-2.24958 -6.748045,-5.29809 -9.881937,-8.42589 -1.354452,-1.3344 -2.709555,-2.66805 -4.065297,-4.00099 -0.999425,-0.98553 -0.999425,-0.98553 -2.019036,-1.99096 -2.579071,-2.5201 -5.214906,-4.97021 -7.85383,-7.42088 -16.516793,-15.59686 -32.309533,-33.41785 -42.830814,-54.18479 0,-0.80476 0,-1.60953 0,-2.43869 -1.149898,-0.40239 -2.299797,-0.80477 -3.484541,-1.21935 0.3833,-1.20715 0.766599,-2.41431 1.161514,-3.65804 -1.149899,-0.40239 -2.299797,-0.80477 -3.484541,-1.21935 0,-1.20716 0,-2.41431 0,-3.65805 -0.707722,-1.97357 -1.422831,-3.94476 -2.183797,-5.89639 C 8.8612853,363.75226 6.3526715,354.6977 4.3151559,345.20426 4.075315,344.09407 3.835474,342.98387 3.588362,341.84004 -6.8929857,291.21407 6.4915188,239.0874 31.973698,195.7579 c 4.81164,-7.84917 9.768271,-15.64655 15.399127,-22.87706 2.225948,-2.68953 2.225948,-2.68953 3.185091,-6.38729 1.892675,-2.07659 3.838094,-4.1004 5.807568,-6.09674 2.49636,-2.74147 4.948989,-5.52519 7.404649,-8.30681 0.625858,-0.70496 1.251717,-1.40992 1.896531,-2.13624 3.241482,-3.6662 6.415527,-7.37208 9.514434,-11.1718 5.049901,-6.08714 10.486006,-11.76739 15.93139,-17.45996 1.765083,-1.84643 3.523858,-3.69928 5.282111,-5.55286 5.555071,-5.83571 11.165831,-11.54286 17.139411,-16.911016 3.28805,-2.968173 6.44765,-6.078901 9.61851,-9.183508 3.98502,-3.901755 8.00216,-7.748555 12.11423,-11.50283 12.51021,-11.445302 24.39074,-23.645294 36.16366,-35.915668 1.61645,-1.683627 3.23798,-3.361889 4.85965,-5.039968 6.99398,-7.332099 13.29463,-15.035879 19.45706,-23.141118 1.05775,-1.323968 2.12107,-2.643083 3.19417,-3.953358 12.11486,-13.3359986 12.11486,-13.3359986 18.87459,-28.969042 0.85493,-0.884929 1.70988,-1.769859 2.59072,-2.681614 3.3959,-3.605223 5.81538,-7.375313 8.22588,-11.721935 0.44842,-0.800746 0.89686,-1.60148 1.35887,-2.426491 7.35579,-13.30979 13.50613,-27.027865 19.1128,-41.241414 0.45292,-1.142022 0.90585,-2.284045 1.3725,-3.460675 2.12284,-5.493396 3.91459,-10.5568 4.50767,-16.506151 0.7666,0 1.53319,0 2.32302,0 0.12811,-0.704272 0.25622,-1.408543 0.38822,-2.134157 1.32284,-7.120765 2.83764,-14.174905 4.44074,-21.231425 2.78316,-12.26766 5.29585,-24.46968 6.96057,-36.96327 0.88761,-6.63083 0.88761,-6.63083 2.14864,-7.95464 z"
         fill="#f78f1b"
         id="path1"
         style="stroke-width:1.19008" /><path
         d="m 412.95017,133.57115 c 0.7666,0 1.53319,0 2.32302,0 1.69152,1.82574 1.69152,1.82574 3.65242,4.32964 4.16278,5.13812 8.65888,9.65751 13.40731,14.18921 7.74058,7.50353 14.99975,15.29901 22.02055,23.54032 1.53358,1.79166 3.08873,3.56289 4.64436,5.33346 5.83673,6.64503 11.39591,13.45435 16.77842,20.50982 1.81663,2.30877 3.68299,4.37468 5.70322,6.47778 2.42648,3.1678 4.6738,6.48151 6.96908,9.75479 0.94773,1.32615 1.89604,2.65184 2.8448,3.97717 35.48515,49.81851 35.48515,49.81851 35.48515,63.08698 0.7666,0.40238 1.5332,0.80477 2.32303,1.21935 1.91213,4.78056 3.3984,9.72698 4.94635,14.64915 0.76718,2.43002 1.55589,4.85142 2.34714,7.27292 5.72362,17.81679 8.50699,35.02949 8.38694,53.82993 -0.002,0.86764 -0.005,1.73528 -0.006,2.62922 -0.19283,36.84713 -12.66232,68.48183 -34.25884,97.20491 -0.69772,0.96823 -1.39545,1.93647 -2.11432,2.93405 -14.44516,19.69405 -31.89069,37.26081 -50.33528,52.77968 -3.87487,3.3023 -7.65544,6.70818 -11.43365,10.13107 -4.79055,4.3346 -9.60814,8.61826 -14.51892,12.80315 -6.2432,5.32758 -12.35826,10.79887 -18.44357,16.32307 -2.64556,2.39988 -5.31267,4.76494 -8.01263,7.09699 -9.63592,8.4126 -18.60926,17.5062 -27.50218,26.76548 -1.36501,1.42104 -2.73266,2.83929 -4.10323,4.2544 -9.56924,9.90089 -18.0868,20.24365 -26.14813,31.5241 -0.72729,1.00587 -1.45459,2.01173 -2.20392,3.04808 -1.80725,2.52236 -3.58519,5.06291 -5.34591,7.62122 -0.6195,0.89996 -1.23899,1.79993 -1.87725,2.72716 -11.39839,16.17677 -11.39839,16.17677 -19.61076,34.15812 -0.76659,1.20716 -1.53319,2.41431 -2.32302,3.65805 -3.22809,6.43557 -6.27292,12.96365 -9.29211,19.50957 -0.38724,0.83542 -0.77446,1.67083 -1.17343,2.53157 -6.18647,13.50133 -10.83002,27.35612 -15.12378,41.64032 -0.41633,1.36936 -0.83267,2.7387 -1.26161,4.14954 -0.36665,1.23319 -0.73329,2.46638 -1.11104,3.73693 -1.07587,2.8123 -1.07587,2.8123 -3.3989,4.03165 -0.56276,-4.92743 -1.11688,-9.85592 -1.66968,-14.7846 -0.15646,-1.36904 -0.31292,-2.7381 -0.47413,-4.14863 -2.16409,-19.39383 -2.85205,-38.68362 -3.22819,-58.19054 -0.0253,-1.30337 -0.0506,-2.60676 -0.0767,-3.94964 -1.85346,-99.35219 21.16796,-180.0442 77.04967,-260.33454 1.04784,-1.50997 1.04784,-1.50997 2.11687,-3.05046 1.35766,-1.95336 2.7207,-3.90262 4.08969,-5.84727 0.60947,-0.8754 1.21895,-1.7508 1.8469,-2.65273 0.54389,-0.77481 1.08777,-1.54962 1.64813,-2.34791 1.36966,-1.92222 1.36966,-1.92222 1.16491,-4.40138 0.69473,-0.67903 1.38946,-1.35805 2.10525,-2.05765 3.21106,-3.56358 4.3548,-6.79549 6.02535,-11.35518 0.7666,0 1.5332,0 2.32303,0 1.94603,-2.96153 3.75,-5.91613 5.51718,-8.99269 0.52554,-0.90173 1.05108,-1.80347 1.59254,-2.73252 1.0449,-1.79565 2.08626,-3.59358 3.12385,-5.39389 1.08151,-1.87129 2.18095,-3.73118 3.28716,-5.58649 9.42952,-15.958 17.61698,-32.77138 23.64765,-50.4553 0.29309,-0.84642 0.58618,-1.69284 0.88816,-2.56492 17.85752,-52.04586 17.85016,-108.19936 -0.57509,-160.08469 -1.18609,-3.54006 -2.07044,-6.80612 -2.63609,-10.49782 z"
         fill="#0f354c"
         id="path2"
         style="fill:#e6e6e6;stroke-width:1.19008" /><path
         d="m 343.25935,144.54528 c 1.1499,0.40239 2.2998,0.80477 3.48454,1.21935 0.14374,1.20244 0.28748,2.40488 0.43557,3.64375 0.68834,5.05449 1.82989,9.93684 3.04897,14.8751 0.20662,0.85114 0.41325,1.70227 0.62613,2.5792 0.56267,2.31646 1.12959,4.63176 1.6969,6.94696 1.94444,8.09258 3.71943,16.22924 5.524,24.3572 0.47275,2.12375 0.94795,4.24691 1.4258,6.36942 2.52823,11.23593 4.91454,22.46372 6.74335,33.8512 0.14555,0.89972 0.2911,1.79945 0.44106,2.72645 1.4275,9.29453 1.4275,9.29453 0.96547,13.1727 -1.50322,1.7686 -1.50322,1.7686 -3.61612,3.1865 -1.15875,0.80266 -1.15875,0.80266 -2.34089,1.62154 -0.83707,0.55101 -1.67414,1.10203 -2.53656,1.66975 -1.72806,1.18933 -3.4552,2.3801 -5.18144,3.57231 -0.84708,0.57646 -1.69415,1.15293 -2.5669,1.74685 -2.95806,2.04067 -5.81298,4.20707 -8.65804,6.41707 -7.78605,5.99895 -15.69297,11.81585 -23.59041,17.65137 -2.62342,1.93971 -5.24493,3.88224 -7.86574,5.82585 -1.28087,0.94986 -1.28087,0.94986 -2.58761,1.91892 -1.67864,1.24502 -3.3572,2.49015 -5.03568,3.73544 -5.45113,4.04144 -10.92054,8.05395 -16.4146,12.03094 -2.21287,1.61231 -2.21287,1.61231 -4.39651,4.02957 -1.57114,1.14215 -3.16192,2.25472 -4.76401,3.34844 -5.25195,3.63492 -10.34244,7.45974 -15.41729,11.35994 -7.39302,5.64817 -14.86498,11.14904 -22.43173,16.53741 -10.9889,7.83505 -21.77319,15.93837 -32.29098,24.45841 -0.64018,0.51516 -1.28035,1.03032 -1.93993,1.5611 -1.72928,1.39573 -3.44989,2.80332 -5.16981,4.21175 -2.77674,1.92905 -2.77674,1.92905 -6.26128,1.92905 -3.94089,-22.94925 -4.82384,-44.98641 -4.64606,-68.2835 0.7666,0 1.5332,0 2.32303,0 -0.0584,-1.49322 -0.11679,-2.98645 -0.17694,-4.52492 10e-4,-7.48642 1.51106,-14.55253 3.00813,-21.84348 0.53283,-2.65736 1.06374,-5.31515 1.59254,-7.97339 0.24537,-1.23113 0.49073,-2.46225 0.74353,-3.73068 0.74982,-3.96433 1.32577,-7.91117 1.80182,-11.9208 0.7666,0 1.5332,0 2.32303,0 0.12727,-0.69317 0.25454,-1.38634 0.38566,-2.10052 2.57153,-13.14671 5.3785,-18.23232 16.14096,-25.72478 3.14871,-2.20216 6.25525,-4.46782 9.36839,-6.72488 3.11341,-2.25317 6.23882,-4.48775 9.36271,-6.72488 1.57987,-1.15934 3.11546,-2.38487 4.63754,-3.62648 1.91923,-1.43369 1.91923,-1.43369 4.24226,-1.43369 0,-0.80477 0,-1.60954 0,-2.43869 2.30487,-1.76234 2.30487,-1.76234 5.51719,-3.81047 12.74649,-8.28439 25.06166,-17.23382 37.39926,-26.16776 3.81671,-2.76304 7.63664,-5.52118 11.4569,-8.27882 0.75219,-0.54316 1.50437,-1.08632 2.27936,-1.64594 4.29501,-3.09991 8.59422,-6.19324 12.89744,-9.28057 0.95929,-0.68845 1.91857,-1.37691 2.90691,-2.08623 1.91082,-1.37017 3.82265,-2.73879 5.73555,-4.10576 3.90716,-2.79699 7.80365,-5.59719 11.61598,-8.53544 1.02713,-0.78905 2.05424,-1.57811 3.1125,-2.39107 0.83846,-0.6633 1.67693,-1.32661 2.54081,-2.01002 0.69472,-0.39295 1.38946,-0.78591 2.10524,-1.19077 z"
         fill="#0d82c2"
         id="path3"
         style="stroke-width:1.19008" /><path
         d="m 366.48962,266.4801 c 0.3833,0 0.7666,0 1.16152,0 1.64522,32.62386 -10.20363,64.27668 -24.39179,92.67045 -1.03311,2.11017 -1.03311,2.11017 -2.0871,4.26295 -6.10401,12.2819 -12.80887,24.18699 -19.47804,36.13748 -3.43427,6.15564 -6.86066,12.31502 -10.23129,18.50933 -0.43562,0.7866 -0.87122,1.57319 -1.32004,2.38362 -1.85124,3.42503 -2.89045,5.41916 -2.89045,9.42882 -0.7666,0 -1.5332,0 -2.32303,0 -0.30994,1.0594 -0.61986,2.11881 -0.9392,3.21031 -1.35656,4.02489 -3.01571,7.51388 -4.94096,11.26944 -10.18904,20.7799 -16.75144,43.36154 -21.99616,65.99722 -0.25098,1.05823 -0.50196,2.11645 -0.76055,3.20674 -7.5061,32.05541 -10.82296,65.24675 -14.33913,97.99916 -0.7666,0 -1.5332,0 -2.32303,0 -0.15769,-0.84682 -0.31536,-1.69363 -0.47782,-2.56611 -0.73235,-3.92119 -1.47025,-7.8412 -2.20818,-11.76123 -0.2478,-1.33134 -0.49559,-2.66266 -0.75091,-4.03433 -1.69813,-8.99327 -3.65621,-17.88144 -5.8552,-26.75421 -0.7666,0.40238 -1.5332,0.80477 -2.32302,1.21934 0.0928,-1.45078 0.18565,-2.90157 0.2813,-4.39632 -0.003,-8.3714 -2.50959,-16.0759 -4.78217,-24.02973 -0.42372,-1.53802 -0.84745,-3.07605 -1.28402,-4.66068 -1.64181,-5.88206 -3.21462,-11.42742 -5.83025,-16.90654 -0.234,-1.96007 -0.46705,-3.92026 -0.69419,-5.88121 -1.05312,-5.98134 -3.21976,-11.70451 -5.11338,-17.43882 -0.85013,-2.59314 -1.69719,-5.18739 -2.54081,-7.78287 -0.37581,-1.13976 -0.75163,-2.27953 -1.13883,-3.45383 -0.96641,-3.24306 -0.96641,-3.24306 -1.53356,-6.63378 -0.19614,-0.89299 -0.39229,-1.78598 -0.59437,-2.70602 -0.7666,-0.40239 -1.53319,-0.80477 -2.32302,-1.21935 -0.84879,-2.82165 -1.62773,-5.66788 -2.32303,-8.53544 -0.7666,0 -1.5332,0 -2.32303,0 -0.3833,-4.82862 -0.7666,-9.65723 -1.16151,-14.63217 -1.1499,0 -2.2998,0 -3.48454,0 -1.1499,-3.01789 -1.1499,-3.01789 -2.32303,-6.09675 0.7666,0 1.5332,0 2.32303,0 -2.2998,-7.24292 -4.5996,-14.48585 -6.96908,-21.94826 -0.7666,0 -1.5332,0 -2.32303,0 -0.0958,-1.30775 -0.19165,-2.6155 -0.29038,-3.96288 -0.67118,-5.98905 -2.62263,-11.35701 -4.65513,-16.97085 -1.0096,-4.04423 -1.31389,-5.70455 0.29945,-9.54998 2.74565,-2.67626 5.80389,-4.77846 8.92914,-6.93504 1.79393,-1.28407 3.58762,-2.56852 5.38107,-3.85333 1.35933,-0.95989 1.35933,-0.95989 2.74612,-1.93917 4.05271,-2.87012 8.05916,-5.80572 12.05411,-8.76347 0.698,-0.50406 1.39601,-1.00812 2.11516,-1.52746 1.63633,-1.20791 3.21592,-2.4998 4.78133,-3.80718 0,-0.80477 0,-1.60954 0,-2.4387 0.63035,-0.10535 1.26069,-0.21062 1.91014,-0.31913 3.65097,-1.20131 6.222,-3.22141 9.34202,-5.54898 0.64916,-0.48107 1.29832,-0.96215 1.96714,-1.45781 1.42062,-1.05381 2.83905,-2.11086 4.25557,-3.17072 2.35413,-1.75907 4.71612,-3.50589 7.08024,-5.2501 8.36985,-6.17907 16.71128,-12.39912 25.03125,-18.65191 5.33043,-4.00272 10.68235,-7.97288 16.03915,-11.93658 6.08599,-4.50392 12.1637,-9.01926 18.22125,-13.56525 0.65308,-0.49 1.30617,-0.98002 1.97906,-1.48488 3.39949,-2.55228 6.79573,-5.10924 10.18961,-7.66975 1.41237,-1.06404 2.82495,-2.1278 4.23771,-3.19127 0.67507,-0.50867 1.35015,-1.01736 2.04569,-1.54145 4.6998,-3.52577 9.47289,-6.90305 14.34707,-10.15667 2.00826,-1.32384 2.00826,-1.32384 2.99,-3.84857 1.70606,-1.1056 3.45534,-2.13883 5.22681,-3.12458 3.4166,-1.77277 3.4166,-1.77277 6.38832,-4.1915 z M 218.9774,459.1371 c 1.16151,2.4387 1.16151,2.4387 1.16151,2.4387 z m 30.19935,102.42524 c 1.16151,2.4387 1.16151,2.4387 1.16151,2.4387 z"
         fill="#0c4b72"
         id="path4"
         style="stroke-width:1.19008" /><path
         d="m 299.12183,-61.524552 c 1.1499,0.603577 1.1499,0.603577 2.32303,1.219348 0.52432,2.586947 0.52432,2.586947 0.87567,6.106266 0.14814,1.351861 0.29627,2.703721 0.4489,4.096547 0.1618,1.511988 0.3236,3.023977 0.4903,4.581783 2.00744,17.182237 4.86965,34.140004 7.9854,51.1364123 0.2172,1.1966683 0.43442,2.3933366 0.65821,3.6262682 2.36174,12.9746685 4.9011,25.8871145 7.80359,38.7413115 0.24672,1.093012 0.49344,2.186023 0.74763,3.312152 1.15321,5.306884 1.15321,5.306884 3.05906,10.334073 0.31734,2.0278 0.60184,4.061295 0.87113,6.096741 1.45192,9.549447 4.0085,18.732284 6.57464,28.003622 0.61314,2.220458 1.21037,4.445748 1.8055,6.671588 1.78792,6.45952 3.75524,12.85711 5.70548,19.26428 0.45031,1.48654 0.45031,1.48654 0.9097,3.00312 0.27111,0.89072 0.54221,1.78145 0.82151,2.69917 0.70992,2.45901 1.32414,4.9245 1.89626,7.42237 -0.65244,0.46467 -1.30487,0.92934 -1.97707,1.40809 -11.7376,8.36548 -23.45237,16.75737 -35.04618,25.34136 -8.58988,6.35698 -17.29614,12.50812 -26.06146,18.59506 -8.23912,5.7231 -16.34561,11.5387 -24.23866,17.77491 -8.09272,6.32681 -16.55984,12.08257 -24.99863,17.88387 -6.77092,4.67831 -13.18096,9.29092 -18.92904,15.32521 -0.7666,-1.60954 -1.5332,-3.21908 -2.32303,-4.87739 1.1499,0 2.2998,0 3.48454,0 0.1749,-0.69278 0.3498,-1.38556 0.53,-2.09933 2.4406,-9.12147 5.90242,-17.60284 9.56065,-26.25052 1.35329,-3.23377 2.70039,-6.47037 4.04715,-9.70715 0.53114,-1.27459 0.53114,-1.27459 1.07303,-2.57493 4.05889,-9.757 8.02143,-19.55647 11.96326,-29.36613 0.79413,-1.97509 1.58975,-3.94951 2.38705,-5.92318 4.37543,-10.83347 8.62892,-21.67172 12.34166,-32.77874 1.98587,-5.78813 1.98587,-5.78813 4.55775,-7.1381 0.73562,-2.27716 0.73562,-2.27716 1.3067,-5.18223 1.67124,-6.867986 3.98924,-13.310326 6.46092,-19.890612 3.80014,-10.219795 7.14123,-20.538553 10.23584,-31.017168 0.40678,-1.3605 0.81357,-2.721012 1.23269,-4.122738 0.37179,-1.280144 0.74358,-2.560289 1.12663,-3.879234 0.33015,-1.133274 0.6603,-2.266561 1.00045,-3.434184 0.70949,-3.213946 0.83854,-6.006631 0.70553,-9.292762 0.76659,0 1.53319,0 2.32302,0 0,-4.023849 0,-8.047698 0,-12.193481 0.7666,-0.402385 1.5332,-0.80477 2.32303,-1.219348 0.74876,-2.98027 1.35101,-5.882075 1.88292,-8.90696 0.16796,-0.910695 0.33594,-1.8213895 0.509,-2.7596779 0.54411,-2.9679665 1.07299,-5.9386522 1.60078,-8.90986216 0.36653,-2.02577624 0.73348,-4.05147924 1.10083,-6.07709694 3.15042,-17.474259 6.07604,-34.889415 7.68312,-52.604032 0.3833,-0.80477 0.7666,-1.609539 1.16151,-2.438696 z"
         fill="#26b1ef"
         id="path5"
         style="stroke-width:1.19008" /><path
         d="m 264.27643,-128.5887 c 1.14989,0.60358 1.14989,0.60358 2.32302,1.21935 0.39812,11.4936 -2.19573,21.12438 -6.31573,31.70305 -2.48984,6.475528 -4.8206,12.935922 -6.82133,19.59858 -1.04914,3.077207 -2.6337,5.68748 -4.28564,8.446427 -0.3989,1.622672 -0.78542,3.248734 -1.16151,4.877393 -2.37695,5.364896 -5.15189,10.489989 -7.90829,15.646713 -1.12291,2.145084 -2.17243,4.332379 -3.19869,6.530181 -1.85034,3.800476 -4.02879,7.219309 -6.31573,10.745505 -2.76725,4.35756 -3.48454,5.570324 -3.48454,10.974133 -1.91082,1.262135 -3.85009,2.47735 -5.80757,3.658045 -1.79602,2.585213 -1.79602,2.585213 -3.19416,5.5632757 -3.27715,6.1121654 -7.23897,10.9354555 -11.84653,15.9896535 -2.3695,2.819145 -4.03113,5.7175718 -5.86655,8.9307738 -1.54868,0.812903 -3.09738,1.625794 -4.64606,2.438696 -0.42452,1.61549 -0.80581,3.243698 -1.16151,4.877393 -3.26421,4.949749 -7.23413,8.360851 -11.61514,12.193481 -1.29363,1.697565 -1.29363,1.697565 -2.6134,3.429417 -0.67078,0.880211 -1.34155,1.760434 -2.03265,2.667324 -0.7666,0 -1.5332,0 -2.32303,0 -0.26352,0.679018 -0.52704,1.358049 -0.79854,2.05765 -2.6349,4.8736 -5.728,8.355181 -10.81659,10.135831 -0.28748,0.880211 -0.57495,1.760434 -0.87114,2.667324 -1.8218,4.303165 -4.29959,6.248867 -7.77216,9.121297 -1.96189,1.546768 -1.96189,1.546768 -2.97184,4.062905 -1.1499,0.402385 -2.2998,0.80477 -3.48454,1.219348 -3.18039,3.09445 -5.72157,5.96132 -8.1306,9.754785 -1.45914,1.273182 -2.96439,2.489397 -4.50086,3.658045 -0.78757,0.603577 -1.57512,1.207154 -2.38655,1.829022 -0.79355,0.603577 -1.58709,1.207154 -2.4047,1.829022 -1.5506,1.216641 -3.09987,2.435209 -4.64605,3.658044 -0.7666,-0.804769 -1.5332,-1.609539 -2.32303,-2.438696 0.77933,-0.686103 0.77933,-0.686103 1.5744,-1.386057 4.31737,-3.836545 8.41028,-7.772674 12.36377,-12.026772 3.92128,-4.218177 7.85333,-8.336879 12.14144,-12.145854 6.20169,-5.667884 12.00361,-11.755235 17.81432,-17.856183 1.89963,-1.991549 3.80837,-3.973124 5.71768,-5.954443 7.62087,-7.958124 14.56167,-16.157606 21.24072,-25.010927 1.0572,-1.324444 2.12051,-2.643583 3.19417,-3.953358 12.11486,-13.3359986 12.11486,-13.3359986 18.87459,-28.969042 0.85493,-0.884929 1.70988,-1.769859 2.59072,-2.681614 3.3959,-3.60521 5.81538,-7.375313 8.22588,-11.721935 0.44842,-0.800746 0.89686,-1.60148 1.35887,-2.426491 7.35579,-13.30979 13.50613,-27.027865 19.1128,-41.241414 0.67939,-1.713034 0.67939,-1.713034 1.3725,-3.460675 2.12284,-5.493396 3.91459,-10.5568 4.50767,-16.506151 0.7666,0 1.53319,0 2.32302,0 0.11383,-0.653875 0.22759,-1.307751 0.34482,-1.981441 1.81922,-10.009971 4.22154,-19.852571 6.62427,-29.721611 z"
         fill="#f7a814"
         id="path6"
         style="stroke-width:1.19008" /><path
         d="m 227.10799,481.08537 c 0.7666,0 1.5332,0 2.32303,0 12.55983,35.85981 21.8167,72.61102 30.19935,109.74133 0.3833,0 0.7666,0 1.16151,0 0.089,-0.68625 0.17794,-1.3725 0.26959,-2.07955 0.94906,-7.30421 1.91319,-14.60612 2.88516,-21.90702 0.35833,-2.70568 0.71313,-5.41189 1.06397,-8.11866 1.89426,-14.59511 4.01279,-29.08028 6.94724,-43.48959 0.24024,-1.19489 0.48047,-2.38976 0.72798,-3.62085 0.34781,-1.64156 0.34781,-1.64156 0.70264,-3.31628 0.30444,-1.4413 0.30444,-1.4413 0.61501,-2.91171 0.72658,-2.34941 0.72658,-2.34941 3.04961,-4.7881 0.29653,7.71134 -0.8001,14.25276 -2.54082,21.71964 -6.42295,29.24448 -9.36101,59.45365 -12.55886,89.24104 -0.7666,0 -1.5332,0 -2.32303,0 -0.15769,-0.84682 -0.31536,-1.69363 -0.47782,-2.56611 -0.73235,-3.92119 -1.47025,-7.8412 -2.20818,-11.76123 -0.2478,-1.33134 -0.49559,-2.66266 -0.75091,-4.03433 -1.69813,-8.99327 -3.65621,-17.88144 -5.8552,-26.75421 -1.1499,0.60357 -1.1499,0.60357 -2.32302,1.21934 0.0928,-1.45078 0.18565,-2.90157 0.2813,-4.39632 -0.003,-8.37141 -2.50959,-16.0759 -4.78217,-24.02973 -0.42373,-1.53802 -0.84745,-3.07605 -1.28402,-4.66068 -1.64194,-5.88247 -3.21657,-11.42629 -5.83025,-16.90654 -0.23133,-1.85553 -0.23133,-1.85553 -0.46734,-3.74854 -0.91047,-6.27842 -2.8459,-11.9884 -4.83207,-17.9711 -0.7547,-2.29312 -1.5065,-4.58728 -2.25497,-6.88265 -0.33323,-1.00566 -0.66647,-2.01133 -1.0098,-3.04748 -0.72793,-2.49198 -0.72793,-2.49198 -0.72793,-4.93067 z m 22.06876,80.47697 c 1.16151,2.4387 1.16151,2.4387 1.16151,2.4387 z"
         fill="#253d4d"
         id="path7"
         style="stroke-width:1.19008" /><path
         d="m 311.89848,293.30575 c 0,0.80477 0,1.60954 0,2.4387 -1.91525,1.63522 -1.91525,1.63522 -4.58253,3.49134 -0.96424,0.67981 -1.92848,1.35962 -2.92194,2.06002 -1.02113,0.70812 -2.04226,1.41622 -3.09434,2.14578 -6.42992,4.48818 -12.50498,9.05436 -18.43903,14.25113 -2.56368,1.85815 -5.16276,3.65158 -7.76876,5.44359 -4.23244,2.95181 -8.31324,6.11434 -12.41254,9.26479 -7.39302,5.64817 -14.86498,11.14904 -22.43173,16.53741 -10.9889,7.83505 -21.7732,15.93837 -32.29098,24.45841 -0.64018,0.51516 -1.28035,1.03032 -1.93993,1.5611 -1.72929,1.39573 -3.44989,2.80332 -5.16981,4.21175 -2.77674,1.92905 -2.77674,1.92905 -6.26128,1.92905 -3.94089,-22.94925 -4.82384,-44.98641 -4.64606,-68.2835 0.7666,0 1.5332,0 2.32303,0 0.3833,-0.80477 0.7666,-1.60954 1.16152,-2.43869 0.64072,12.1485 1.26344,24.25826 1.08891,36.42802 -0.12151,9.57442 0.92857,18.75048 2.39563,28.19743 1.1499,0.40238 2.29979,0.80477 3.48454,1.21935 -0.3833,-1.60954 -0.7666,-3.21908 -1.16152,-4.8774 1.29364,0.11316 1.29364,0.11316 2.61341,0.22863 3.79558,-0.27167 5.09027,-1.1989 7.84022,-3.88667 0.7666,-1.20715 1.53319,-2.41431 2.32302,-3.65804 1.91618,-0.86277 3.8548,-1.67168 5.80757,-2.4387 1.67205,-1.08232 3.31025,-2.22397 4.91375,-3.41513 1.38277,-1.02119 1.38277,-1.02119 2.79347,-2.06301 0.97819,-0.73227 1.95637,-1.46454 2.96419,-2.219 1.02534,-0.76055 2.05068,-1.52112 3.1071,-2.30473 7.60356,-5.65251 15.16237,-11.37019 22.70453,-17.11256 6.72232,-5.11609 13.4925,-10.15725 20.28254,-15.17367 5.26763,-3.89232 10.51847,-7.80806 15.75643,-11.74426 1.31115,-0.98292 2.62238,-1.9657 3.93372,-2.94835 2.40193,-1.80198 4.80074,-3.60854 7.19594,-5.42038 1.04658,-0.78434 2.09317,-1.56868 3.17147,-2.37678 0.90435,-0.68216 1.8087,-1.36434 2.74044,-2.06717 2.196,-1.43846 2.196,-1.43846 4.51902,-1.43846 z"
         fill="#1d73a4"
         id="path8"
         style="stroke-width:1.19008" /><path
         d="m 271.24551,-165.16914 c 0.7666,0.40238 1.5332,0.80477 2.32302,1.21934 1.65275,38.08312 2.19746,75.51477 -2.32302,113.399381 -0.3833,0 -0.7666,0 -1.16152,0 -0.57495,-3.017887 -0.57495,-3.017887 -1.16151,-6.096741 -0.3833,0 -0.7666,0 -1.16151,0 0.16768,-1.383198 0.33538,-2.766396 0.50816,-4.191509 0.15497,-1.325041 0.15497,-1.325041 0.31306,-2.676851 0.22999,-1.950874 0.46919,-3.900572 0.71688,-5.84906 0.11533,-0.958808 0.23057,-1.917615 0.34936,-2.905478 0.1108,-0.888075 0.22159,-1.776152 0.33574,-2.691139 0.24771,-2.674745 0.24771,-2.674745 -1.06169,-6.072925 0.7666,0 1.5332,0 2.32303,0 -0.32341,-1.169432 -0.32341,-1.169432 -0.65335,-2.362487 -0.54629,-4.014383 -0.0894,-7.486303 0.36665,-11.487653 0.52448,-5.892108 0.45349,-11.787468 0.43189,-17.700498 0.007,-1.88617 0.007,-1.88617 0.0136,-3.81046 -0.002,-1.80601 -0.002,-1.80601 -0.005,-3.64852 -10e-4,-1.08593 -0.002,-2.17185 -0.003,-3.29069 -0.043,-3.01134 -0.043,-3.01134 -1.31181,-6.47362 -1.53319,0.40239 -3.06639,0.80477 -4.64605,1.21935 0.64135,-8.21408 1.70013,-16.32251 2.90378,-24.46317 0.1517,-1.04575 0.30338,-2.0915 0.45967,-3.16894 1.1425,-7.58229 1.1425,-7.58229 2.44376,-8.94833 z"
         fill="#e3ac25"
         id="path9"
         style="stroke-width:1.19008" /><path
         d="m 267.76097,-54.208463 c 4.00611,6.308394 2.39081,12.347509 1.08437,19.466697 -0.56683,2.836802 -1.14681,5.670725 -1.73773,8.5021 -0.31395,1.510907 -0.62791,3.021813 -0.95138,4.578506 -6.37198,29.9589815 -15.73991,58.820196 -27.4331,86.948814 -2.32303,-3.658045 -2.32303,-3.658045 -1.78764,-6.682601 0.35036,-1.089268 0.70072,-2.178536 1.06169,-3.300812 0.34437,-1.098694 0.68874,-2.1974 1.04355,-3.329394 0.41773,-1.25666 0.41773,-1.25666 0.84391,-2.538719 0.7666,0 1.5332,0 2.32303,0 0.15421,-0.735609 0.30844,-1.471217 0.46732,-2.229127 0.20512,-0.974515 0.41026,-1.949043 0.6216,-2.953103 0.30319,-1.442928 0.30319,-1.442928 0.61251,-2.91501 0.56067,-2.594968 1.15778,-5.175767 1.78311,-7.754286 0.7666,0 1.5332,0 2.32303,0 1.23485,-5.092766 2.42531,-10.181788 3.48454,-15.318061 1.19544,-5.696367 2.47217,-11.338084 4.57346,-16.7517458 4.0596,-10.8267019 6.3093,-21.9384382 7.69955,-33.4463412 0.68904,-5.454352 1.73604,-10.801913 2.82666,-16.180177 0.38926,-2.031806 0.77696,-4.063946 1.16152,-6.09674 z"
         fill="#f4ac18"
         id="path10"
         style="stroke-width:1.19008" /><path
         d="m 281.69913,617.65236 c 0.3833,0 0.7666,0 1.16151,0 0.012,1.02601 0.0239,2.052 0.0362,3.10909 0.11464,9.75559 0.23385,19.5111 0.35788,29.26655 0.0635,5.01318 0.12552,10.02636 0.18348,15.03961 0.0562,4.85448 0.117,9.70889 0.18077,14.56326 0.0233,1.83525 0.0451,3.67053 0.0652,5.50582 0.10453,9.46736 0.30966,18.9223 0.79645,28.37739 0.0776,1.52604 0.15507,3.05207 0.23496,4.62435 0.49166,4.59903 1.46419,8.51441 2.79105,12.9133 0.7666,0 1.5332,0 2.32303,0 0.40397,-1.08897 0.40397,-1.08897 0.81612,-2.19994 1.22196,-3.283 2.45322,-6.56206 3.68474,-9.84112 0.42372,-1.14271 0.84745,-2.28542 1.28402,-3.46275 0.41174,-1.09242 0.82349,-2.18483 1.24772,-3.31035 0.37712,-1.0089 0.75424,-2.01781 1.14279,-3.0573 1.11678,-2.5155 1.11678,-2.5155 3.43981,-4.9542 -0.66574,8.39878 -3.46493,15.84212 -6.24313,23.70108 -0.46416,1.33369 -0.92831,2.66738 -1.40653,4.04147 -2.44912,7.02392 -4.93853,14.0318 -7.45002,21.03138 -0.3833,0 -0.7666,0 -1.16151,0 -4.19524,-27.26544 -3.90695,-54.39219 -3.72381,-81.92562 0.0362,-6.0425 0.0517,-12.08504 0.0691,-18.12761 0.0369,-11.76496 0.096,-23.52965 0.17015,-35.29441 z"
         fill="#18272b"
         id="path11"
         style="stroke-width:1.19008" /><path
         d="m 338.6133,127.47441 c 1.81486,2.21007 1.81486,2.21007 3.48454,4.87739 -1.36559,4.30075 -2.26344,4.76017 -5.79396,7.14938 -0.97668,0.67018 -1.95337,1.34037 -2.95965,2.03086 -1.06409,0.71773 -2.12817,1.43545 -3.2245,2.17494 -2.25198,1.54552 -4.50238,3.09358 -6.7513,4.644 -1.1454,0.78885 -2.29082,1.57771 -3.47093,2.39047 -4.98312,3.47658 -9.86822,7.09195 -14.75031,10.72229 -9.77533,7.25117 -19.71493,14.21788 -29.70027,21.14538 -7.61423,5.30696 -15.07362,10.77357 -22.34921,16.58148 -2.86919,2.27635 -5.1229,3.89754 -8.56702,5.10274 1.1499,-3.62146 1.1499,-3.62146 2.32303,-7.31609 4.02465,-0.60358 4.02465,-0.60358 8.1306,-1.21935 0,-0.80477 0,-1.60954 0,-2.43869 2.02145,-1.58612 4.11851,-3.06653 6.24313,-4.49635 4.59644,-3.13758 9.16409,-6.28951 13.64779,-9.60237 0.92531,-0.68216 1.85061,-1.36434 2.80396,-2.06717 2.03187,-1.51005 4.05788,-3.02882 6.0798,-4.55351 1.04509,-0.78276 2.09018,-1.56552 3.16694,-2.37201 0.94627,-0.71517 1.89254,-1.43035 2.86749,-2.16719 2.35932,-1.56706 2.35932,-1.56706 4.68235,-1.56706 0,-0.80477 0,-1.60954 0,-2.4387 1.1469,-0.66487 2.2938,-1.32976 3.47547,-2.01478 4.89031,-2.9338 9.48178,-6.25525 14.09242,-9.64523 8.54053,-6.2593 8.54053,-6.2593 12.5498,-8.71167 2.5891,-1.38057 2.5891,-1.38057 3.5662,-4.1677 0.3833,-0.75447 0.7666,-1.50894 1.16152,-2.28628 2.75859,-0.8383 2.75859,-0.8383 5.80757,-1.21934 1.55112,-0.39609 3.10078,-0.79879 4.64605,-1.21935 -0.57495,-3.62147 -0.57495,-3.62147 -1.16151,-7.31609 z"
         fill="#259fdc"
         id="path12"
         style="stroke-width:1.19008" /><path
         d="m 234.07707,65.287654 c 1.1499,0 2.2998,0 3.48454,0 -5.14122,17.802299 -15.06728,34.086877 -24.174,49.917066 -0.42711,0.74801 -0.85421,1.49603 -1.29426,2.2667 -1.2359,2.15804 -2.48425,4.3075 -3.73745,6.45449 -1.08436,1.86482 -1.08436,1.86482 -2.1906,3.7673 -2.39985,3.60804 -5.05075,6.52168 -8.09515,9.53598 0.3833,-2.81669 0.7666,-5.63339 1.16151,-8.53543 1.72485,-0.60358 1.72485,-0.60358 3.48454,-1.21935 1.27467,-2.1785 1.27467,-2.1785 2.32303,-4.87739 0.4941,-1.00911 0.98819,-2.01822 1.49726,-3.0579 0.51207,-1.05311 1.02413,-2.10624 1.55172,-3.19126 0.51804,-1.05941 1.0361,-2.11882 1.56985,-3.21032 1.3495,-2.60286 1.3495,-2.60286 1.18874,-5.1727 1.72485,-0.60358 1.72485,-0.60358 3.48454,-1.21935 0.85167,-2.45708 0.85167,-2.45708 1.16151,-4.87739 0.7666,0 1.5332,0 2.32303,0 0.11978,-1.13172 0.23956,-2.263417 0.36297,-3.429419 0.86311,-4.200971 1.42768,-4.777711 4.28309,-7.544717 2.50739,-4.738045 4.24507,-9.476968 5.80756,-14.632177 0.3833,-0.80477 0.7666,-1.60954 1.16152,-2.438697 0.7666,0 1.5332,0 2.32302,0 0,-1.609539 0,-3.219079 0,-4.877392 0.7666,0 1.5332,0 2.32303,0 0,-1.207155 0,-2.414309 0,-3.658044 z"
         fill="#f4a417"
         id="path13"
         style="stroke-width:1.19008" /><path
         d="m 227.10799,481.08537 c 0.7666,0 1.5332,0 2.32303,0 7.44379,21.25288 13.79793,42.89531 19.60054,64.70166 0.22169,0.83218 0.44337,1.66436 0.67178,2.52176 2.45201,9.39713 4.45869,18.09237 4.11946,27.88573 -1.64211,-3.21791 -2.75557,-6.18357 -3.48454,-9.75478 -1.1499,0.60357 -1.1499,0.60357 -2.32302,1.21934 0.0928,-1.45078 0.18565,-2.90157 0.2813,-4.39632 -0.003,-8.37141 -2.50959,-16.0759 -4.78217,-24.02973 -0.42373,-1.53802 -0.84745,-3.07605 -1.28402,-4.66068 -1.64194,-5.88247 -3.21657,-11.42629 -5.83025,-16.90654 -0.23133,-1.85553 -0.23133,-1.85553 -0.46734,-3.74854 -0.91047,-6.27842 -2.8459,-11.9884 -4.83207,-17.9711 -0.7547,-2.29312 -1.5065,-4.58728 -2.25497,-6.88265 -0.33323,-1.00566 -0.66647,-2.01133 -1.0098,-3.04748 -0.72793,-2.49198 -0.72793,-2.49198 -0.72793,-4.93067 z m 22.06876,80.47697 c 1.16151,2.4387 1.16151,2.4387 1.16151,2.4387 z"
         fill="#2e4554"
         id="path14"
         style="stroke-width:1.19008" /><path
         d="m 12.227967,366.46664 c 1.149898,0 2.299797,0 3.484541,0 0.341377,1.41935 0.341377,1.41935 0.689648,2.86737 3.579539,13.57333 9.304884,25.23213 17.894569,36.15177 1.095394,1.54455 2.184735,3.09387 3.266757,4.64877 3.177526,4.50453 6.650004,8.62452 10.299359,12.71265 1.533561,2.14815 1.533561,2.14815 1.533561,5.8062 -9.669523,-8.40541 -16.501504,-16.9326 -23.230272,-28.04501 -0.958998,-1.53016 -0.958998,-1.53016 -1.937369,-3.09124 -3.870199,-6.27076 -3.870199,-6.27076 -3.870199,-9.10224 -1.149898,-0.40239 -2.299797,-0.80477 -3.484541,-1.21935 0.3833,-1.20715 0.766599,-2.41431 1.161514,-3.65804 -1.149899,-0.40239 -2.299797,-0.80477 -3.484541,-1.21935 0,-1.20716 0,-2.41431 0,-3.65805 -0.383299,-1.18201 -0.766599,-2.36401 -1.161514,-3.58183 -1.161513,-3.73426 -1.161513,-3.73426 -1.161513,-8.61165 z"
         fill="#f4801d"
         id="path15"
         style="stroke-width:1.19008" /><path
         d="m 428.04984,188.44181 c 0.3833,0 0.7666,0 1.16152,0 0,2.01193 0,4.02385 0,6.09675 1.1499,0 2.29979,0 3.48454,0 2.19809,14.99901 2.54419,29.97038 1.96005,45.11588 -0.0402,1.17267 -0.0805,2.34534 -0.12193,3.55355 -0.0767,1.63611 -0.0767,1.63611 -0.15483,3.30528 -0.0439,0.97138 -0.0878,1.94276 -0.133,2.94358 -0.38878,2.39107 -0.38878,2.39107 -2.71181,4.82976 -1.07621,-9.59503 -1.46842,-19.1543 -1.74227,-28.8071 -0.38229,-12.36571 -0.88441,-24.6979 -1.74227,-37.0377 z"
         fill="#1b3e52"
         id="path16"
         style="stroke-width:1.19008" /><path
         d="m 496.57915,233.5577 c 5.39283,1.82582 7.66784,6.5855 10.52621,11.35518 0.54622,0.89839 1.09244,1.79678 1.65522,2.7224 18.01792,30.21083 18.01792,30.21083 18.01792,37.13504 0.7666,0.40238 1.5332,0.80477 2.32303,1.21935 2.33617,5.44498 4.03889,11.05723 3.48454,17.07087 -2.02984,-3.19636 -3.40798,-6.05689 -4.85477,-9.55949 -5.30465,-12.62694 -10.77228,-24.95157 -17.57696,-36.77574 -0.55606,-0.96656 -1.11209,-1.93314 -1.685,-2.929 -3.25332,-5.52555 -6.75491,-10.72169 -10.59795,-15.81371 -1.29224,-1.98621 -1.29224,-1.98621 -1.29224,-4.4249 z"
         fill="#192d38"
         id="path17"
         style="stroke-width:1.19008" /><path
         d="m 271.24551,-124.93066 c 3.03402,4.74839 2.658,9.79882 2.63155,15.29425 0.002,1.02652 0.005,2.05305 0.007,3.11068 0.001,2.18007 -0.002,4.36016 -0.0124,6.540211 -0.0122,3.26191 -2.2e-4,6.522969 0.0147,9.784852 0.009,13.386794 -0.82909,26.399778 -2.64063,39.650248 -0.3833,0 -0.7666,0 -1.16152,0 -0.3833,-2.011924 -0.7666,-4.023849 -1.16151,-6.096741 -0.3833,0 -0.7666,0 -1.16151,0 0.16768,-1.383198 0.33538,-2.766396 0.50816,-4.191509 0.10326,-0.88336 0.20662,-1.766721 0.31306,-2.676851 0.22999,-1.950874 0.46919,-3.900572 0.71687,-5.84906 0.17293,-1.438212 0.17293,-1.438212 0.34937,-2.905478 0.1108,-0.888075 0.22159,-1.776152 0.33574,-2.691139 0.24771,-2.674745 0.24771,-2.674745 -1.06169,-6.072925 0.7666,0 1.5332,0 2.32303,0 -0.32342,-1.169432 -0.32342,-1.169432 -0.65336,-2.362487 -0.54723,-4.021351 -0.0862,-7.501534 0.37177,-11.509682 0.50697,-5.758879 0.40154,-11.519159 0.35418,-17.297419 -0.006,-1.22994 -0.0104,-2.45989 -0.0159,-3.72711 -0.0136,-3.00002 -0.0325,-5.99989 -0.0567,-8.99984 z"
         fill="#f9ad0f"
         id="path18"
         style="stroke-width:1.19008" /><path
         d="m 299.12183,-61.524552 c 0.7666,0.402385 1.5332,0.80477 2.32303,1.219348 0.58359,2.616121 0.58359,2.616121 0.9891,6.039584 0.14973,1.233875 0.29945,2.467751 0.45372,3.739016 0.14672,1.299892 0.29346,2.599784 0.44464,3.939066 0.23357,1.921546 0.23357,1.921546 0.47187,3.881905 0.65717,5.554362 1.21583,10.938138 1.12521,16.542177 -1.91447,-3.617648 -2.83724,-6.896963 -3.48454,-10.974134 -0.7666,0 -1.5332,0 -2.32303,0 -0.3833,0.80477 -0.7666,1.60954 -1.16151,2.438697 -0.7666,0.402385 -1.5332,0.804769 -2.32303,1.219348 0.35541,-4.217652 0.72117,-8.434243 1.08892,-12.650737 0.10105,-1.200868 0.20213,-2.401734 0.30626,-3.638992 0.10105,-1.147426 0.20212,-2.294851 0.30625,-3.477048 0.0913,-1.059993 0.18249,-2.119987 0.27649,-3.212101 0.34511,-2.627433 0.34511,-2.627433 1.50662,-5.066129 z"
         fill="#61bac9"
         id="path19"
         style="stroke-width:1.19008" /><path
         d="m 365.32811,272.57684 c 0.3833,0 0.7666,0 1.16151,0 0.74628,11.17691 -0.25028,21.24335 -2.6134,32.1603 -0.2376,1.11462 -0.4752,2.22923 -0.71999,3.37762 -1.63034,7.13202 -3.61688,14.15746 -7.12023,20.55209 -1.1499,0.60358 -1.1499,0.60358 -2.32303,1.21935 0.18416,-0.67117 0.36833,-1.34233 0.55808,-2.03384 4.86664,-18.206 9.21047,-36.43997 11.05706,-55.27552 z"
         fill="#1c4762"
         id="path20"
         style="stroke-width:1.19008" /><path
         d="m 242.20767,653.01345 c 0.3833,0 0.7666,0 1.16151,0 1.09465,11.01951 1.2911,21.85745 1.16151,32.9224 -2.32302,-1.21935 -2.32302,-1.21935 -3.77946,-5.39181 -0.51581,-1.75621 -1.02205,-3.51556 -1.51994,-5.27748 -0.25679,-0.87393 -0.51356,-1.74787 -0.77812,-2.64828 -1.29643,-4.4735 -2.44473,-8.89505 -3.21458,-13.50809 1.14989,0.60358 1.14989,0.60358 2.32302,1.21935 0,1.20716 0,2.41431 0,3.65805 1.1499,-0.40239 2.2998,-0.80477 3.48454,-1.21935 0.3833,-3.21908 0.7666,-6.43816 1.16152,-9.75479 z"
         fill="#e08424"
         id="path21"
         style="stroke-width:1.19008" /><path
         d="m 275.89156,500.59494 c 0.3833,0 0.7666,0 1.16152,0 0.36995,8.35515 -1.01944,15.7374 -2.83119,23.85349 -2.44369,11.16932 -2.44369,11.16932 -4.1379,22.48174 -0.7666,0 -1.53319,0 -2.32302,0 -0.3833,1.20715 -0.7666,2.4143 -1.16152,3.65804 1.08519,-11.7153 2.90489,-23.10051 5.29941,-34.599 0.38671,-1.85922 0.38671,-1.85922 0.78124,-3.75599 1.88464,-8.85251 1.88464,-8.85251 3.21146,-11.63828 z"
         fill="#183a51"
         id="path22"
         style="stroke-width:1.19008" /><path
         d="m 322.35211,659.11019 c 0.76659,0.80477 1.53319,1.60954 2.32302,2.4387 -5.80757,12.19348 -5.80757,12.19348 -8.13059,15.85153 -0.73346,1.4443 -1.44451,2.90131 -2.13701,4.36774 -0.39602,0.83542 -0.79205,1.67085 -1.20008,2.53157 -0.408,0.86686 -0.81601,1.73372 -1.23637,2.62684 -0.40351,0.85272 -0.80703,1.70542 -1.22277,2.58397 -0.79244,1.67475 -1.58401,3.34995 -2.37464,5.02564 -1.52756,3.23402 -3.06609,6.46223 -4.60578,9.68989 -0.7666,-1.20715 -1.5332,-2.4143 -2.32303,-3.65804 0.7666,0 1.5332,0 2.32303,0 0.0778,-0.95881 0.15571,-1.91762 0.23592,-2.90547 1.26008,-6.00457 3.77619,-11.00667 6.44278,-16.45168 0.50009,-1.04841 1.00017,-2.0968 1.51542,-3.17698 3.15424,-6.53336 6.57877,-12.78884 10.3901,-18.92371 z"
         fill="#1e2c31"
         id="path23"
         style="stroke-width:1.19008" /><path
         d="m 87.726351,465.23384 c 4.271969,1.9086 7.215469,4.69932 10.598812,8.00197 3.705317,3.74912 3.705317,3.74912 7.985407,6.63021 0,0.80477 0,1.60954 0,2.43869 1.12594,0.30179 2.25188,0.60358 3.41194,0.91452 1.17386,0.50298 2.34771,1.00596 3.55714,1.52418 0.87114,2.51491 0.87114,2.51491 1.16151,4.87739 0.7666,0.40239 1.5332,0.80477 2.32304,1.21935 -5.55687,-0.55708 -8.03114,-2.92346 -11.97812,-6.93504 -4.52386,-4.50492 -9.012434,-8.52177 -14.201316,-12.14585 -2.099033,-2.03858 -2.420462,-3.60534 -2.858413,-6.52542 z"
         fill="#f67e18"
         id="path24"
         style="stroke-width:1.19008" /><path
         d="m 533.74758,412.80187 c 0.3833,0 0.7666,0 1.16151,0 -0.58982,6.90986 -2.39735,12.01725 -5.44459,18.1378 -0.41324,0.84957 -0.82649,1.69914 -1.25226,2.57445 -3.16565,6.40237 -6.65852,12.48437 -10.72585,18.30689 -1.16151,-3.65804 -1.16151,-3.65804 -0.3193,-5.74397 0.45572,-0.75614 0.91145,-1.51228 1.38099,-2.29134 0.74817,-1.2745 0.74817,-1.2745 1.51145,-2.57475 0.54032,-0.89976 1.08065,-1.79952 1.63735,-2.72656 4.85788,-8.33544 8.84316,-16.4846 12.0507,-25.68252 z"
         fill="#223237"
         id="path25"
         style="stroke-width:1.19008" /><path
         d="m 205.03923,415.24057 c 0.7666,0 1.5332,0 2.32303,0 1.35129,3.62463 2.67416,7.26003 3.9927,10.89792 0.37806,1.01304 0.75612,2.02607 1.14564,3.06981 2.44709,6.80637 3.65824,12.91319 4.15377,20.17402 -1.1499,0 -2.2998,0 -3.48454,0 -0.7666,-2.01193 -1.5332,-4.02385 -2.32303,-6.09675 0.7666,0 1.5332,0 2.32303,0 -2.2998,-7.24292 -4.5996,-14.48585 -6.96908,-21.94826 -0.7666,0 -1.5332,0 -2.32303,0 0.3833,-2.01193 0.7666,-4.02385 1.16151,-6.09674 z"
         fill="#2d4e61"
         id="path26"
         style="stroke-width:1.19008" /><path
         d="m 366.48962,266.4801 c 0.3833,0 0.7666,0 1.16152,0 0,4.82861 0,9.65723 0,14.63217 -0.3833,0 -0.7666,0 -1.16152,0 -0.3833,-2.41431 -0.7666,-4.82862 -1.16151,-7.31609 -1.07804,0.40239 -2.15606,0.80477 -3.26676,1.21935 -3.70232,1.21935 -3.70232,1.21935 -7.18686,1.21935 0,-0.80477 0,-1.60954 0,-2.4387 0.74114,-0.42596 1.48229,-0.85192 2.24589,-1.29079 0.95974,-0.55485 1.91949,-1.1097 2.90832,-1.68137 0.95675,-0.5517 1.9135,-1.10341 2.89925,-1.67183 2.31083,-1.25353 2.31083,-1.25353 3.56167,-2.67209 z m -9.29211,9.75478 c 0.3833,1.20716 0.7666,2.41431 1.16152,3.65804 -1.1499,0.40239 -2.2998,0.80477 -3.48454,1.21935 0,0.80477 0,1.60954 0,2.4387 -1.9165,0 -3.833,0 -5.80757,0 0.91033,-0.75447 1.82067,-1.50894 2.75859,-2.28628 3.01224,-2.46746 3.01224,-2.46746 5.372,-5.02981 z"
         fill="#276285"
         id="path27"
         style="stroke-width:1.19008" /><path
         d="m 343.25935,355.49251 c 0,4.86013 -2.03654,8.1201 -4.21049,12.26969 -0.41848,0.81116 -0.83697,1.62231 -1.26814,2.45805 -3.41978,6.58204 -7.01388,13.04491 -10.78256,19.41401 -1.16599,-3.18536 -1.30401,-4.5061 -0.0692,-7.72363 0.85175,-1.53591 0.85175,-1.53591 1.72072,-3.10286 0.61688,-1.12305 1.23374,-2.24612 1.86931,-3.40321 0.6588,-1.16393 1.31759,-2.32786 1.99635,-3.52706 0.64084,-1.16865 1.28167,-2.3373 1.9419,-3.54135 5.22558,-9.4089 5.22558,-9.4089 8.80211,-12.84364 z"
         fill="#1d445e"
         id="path28"
         style="stroke-width:1.19008" /><path
         d="m 222.46194,196.97725 c 0.3833,0 0.76659,0 1.16151,0 -0.51821,6.39208 -2.14652,11.18244 -4.7368,16.97561 -1.75905,4.16275 -2.23228,7.77433 -2.23228,12.28875 -2.90379,2.66732 -2.90379,2.66732 -5.80757,4.87739 -0.7666,-1.60954 -1.5332,-3.21908 -2.32303,-4.87739 1.1499,0 2.2998,0 3.48454,0 0.17069,-0.68217 0.34137,-1.36434 0.51724,-2.06718 2.51823,-9.45018 6.14322,-18.25371 9.93639,-27.19718 z"
         fill="#39a6d5"
         id="path29"
         style="stroke-width:1.19008" /><path
         d="m 223.62345,561.56234 c 3.05045,4.80352 4.37849,9.76645 6.02535,15.24185 0.49747,1.58675 0.49747,1.58675 1.00498,3.20556 0.30769,1.01696 0.61538,2.03392 0.93239,3.08171 0.28326,0.92815 0.56653,1.85631 0.85837,2.8126 0.47102,2.48394 0.47102,2.48394 -0.6905,6.14199 -1.53319,0 -3.06639,0 -4.64605,0 0.0479,-1.43349 0.0958,-2.867 0.14519,-4.34393 0.008,-5.01578 -1.12207,-9.12487 -2.46822,-13.9463 -0.51615,-4.05494 -0.86447,-8.1149 -1.16151,-12.19348 z"
         fill="#ef8322"
         id="path30"
         style="stroke-width:1.19008" /><path
         d="m 300.28335,437.18883 c 0,6.00079 -2.77637,11.083 -5.00903,16.53741 -0.46939,1.18437 -0.93878,2.36873 -1.4224,3.58898 -0.46041,1.13092 -0.92081,2.26185 -1.39518,3.42704 -0.4197,1.0367 -0.8394,2.07342 -1.27182,3.14154 -1.3552,2.56939 -1.3552,2.56939 -4.83974,5.00809 2.18046,-7.77618 4.47963,-15.49421 6.96909,-23.16762 0.76659,0 1.53319,0 2.32302,0 0.33539,-1.18201 0.67078,-2.36401 1.01633,-3.58183 1.3067,-3.73426 1.3067,-3.73426 3.62973,-4.95361 z"
         fill="#143b55"
         id="path31"
         style="stroke-width:1.19008" /><path
         d="m 0.61283133,293.30575 c 0.38329949,0 0.76659897,0 1.16151357,0 0.056896,1.2103 0.1137923,2.42061 0.1724122,3.66757 0.499755,9.78155 1.3282789,19.35095 2.8448009,29.03097 0.5027309,4.17599 0.543091,8.21256 0.4673277,12.41735 -0.3832995,0 -0.766599,0 -1.1615136,0 0,-2.01193 0,-4.02385 0,-6.09675 -0.766599,0 -1.5331979,0 -2.3230272,0 -1.08597127,-8.60868 -1.30190313,-17.00517 -1.23410817,-25.68252 0.005241,-1.2881 0.0104803,-2.5762 0.0158801,-3.90334 0.0135536,-3.1445 0.032568,-6.28885 0.0567145,-9.43328 z"
         fill="#f28724"
         id="path32"
         style="stroke-width:1.19008" /><path
         d="m 224.78496,229.89965 c 0.7666,0.40239 1.5332,0.80477 2.32303,1.21935 -2.55027,4.01586 -4.2125,4.93958 -8.13059,7.31609 -2.12949,1.60437 -4.23414,3.23837 -6.32935,4.89168 -1.80125,1.20506 -1.80125,1.20506 -4.12428,1.20506 -1.72485,7.24293 -1.72485,7.24293 -3.48454,14.63218 -0.7666,0 -1.5332,0 -2.32303,0 0.30072,-1.70477 0.61882,-3.40615 0.94373,-5.10602 0.17518,-0.94782 0.35036,-1.89561 0.53085,-2.87214 2.07924,-7.34204 6.06858,-10.82768 12.02802,-14.88462 1.37068,-0.95825 2.74092,-1.91718 4.11067,-2.87691 1.08701,-0.76075 2.17402,-1.52151 3.29398,-2.30532 0.3833,-0.40239 0.7666,-0.80477 1.16151,-1.21935 z"
         fill="#217eaf"
         id="path33"
         style="stroke-width:1.19008" /><path
         d="m 412.95017,133.57115 c 2.32302,0 2.32302,0 4.36929,2.00525 0.73815,0.87236 1.47629,1.74472 2.23682,2.64351 1.12069,1.29439 1.12069,1.29439 2.26404,2.61493 0.52254,0.82206 1.04508,1.64412 1.58347,2.49109 -0.3833,1.20716 -0.7666,2.41431 -1.16151,3.65805 -0.7666,0 -1.5332,0 -2.32303,0 0.3833,0.80477 0.7666,1.60954 1.16151,2.43869 0.0465,2.43821 0.0505,4.87797 0,7.31609 -2.18608,-3.4424 -3.39176,-6.34563 -4.71865,-10.21204 -0.39677,-1.14114 -0.79354,-2.28228 -1.20235,-3.458 -0.97332,-3.15825 -1.66098,-6.23199 -2.20959,-9.49757 z"
         fill="#2f4c56"
         id="path34"
         style="stroke-width:1.19008" /><path
         d="m 227.10799,481.08537 c 0.7666,0 1.5332,0 2.32303,0 1.11859,3.24961 2.23071,6.50143 3.33935,9.75478 0.31292,0.90694 0.62586,1.81388 0.94826,2.7483 2.01631,5.93706 3.63583,11.84274 5.0045,17.98062 -0.7666,0.40238 -1.5332,0.80477 -2.32303,1.21935 -1.55432,-4.82461 -3.10092,-9.6519 -4.64606,-14.47976 -0.44318,-1.37534 -0.88638,-2.75068 -1.343,-4.1677 -0.41923,-1.31247 -0.83847,-2.62492 -1.2704,-3.97717 -0.38929,-1.21324 -0.77858,-2.42649 -1.17967,-3.67649 -0.85298,-2.96324 -0.85298,-2.96324 -0.85298,-5.40193 z"
         fill="#1d3f58"
         id="path35"
         style="stroke-width:1.19008" /><path
         d="m 191.10107,142.10659 c 1.1499,0.40238 2.2998,0.80477 3.48454,1.21934 -4.08287,8.17731 -8.78095,15.6941 -13.93816,23.16762 -1.29764,-4.53445 -1.29764,-4.53445 -0.0726,-7.62093 0.40725,-0.70417 0.81451,-1.40834 1.23411,-2.13386 0.7666,0 1.5332,0 2.32303,0 0.33239,-0.69788 0.66478,-1.39577 1.00725,-2.11481 1.98727,-4.17245 3.97455,-8.34491 5.96183,-12.51736 z"
         fill="#f69f1b"
         id="path36"
         style="stroke-width:1.19008" /><path
         d="m 301.44486,175.02899 c 0.3833,0.80477 0.7666,1.60953 1.16151,2.43869 -0.76659,0 -1.53319,0 -2.32302,0 -0.3833,1.20716 -0.7666,2.41431 -1.16152,3.65805 -2.4095,2.07438 -4.77482,3.94389 -7.33205,5.7919 -0.67601,0.51713 -1.35203,1.03425 -2.04853,1.56706 -2.00316,1.46225 -2.00316,1.46225 -5.71909,3.61517 -1.5332,-0.40239 -3.0664,-0.80477 -4.64606,-1.21935 7.28269,-5.231 14.56538,-10.46201 22.06876,-15.85152 z"
         fill="#1982bc"
         id="path37"
         style="stroke-width:1.19008" /><path
         d="m 196.90864,501.81428 c 3.48224,4.30871 6.08531,8.59141 8.49356,13.64146 0.61837,1.27475 1.23674,2.54949 1.87385,3.86286 0.41175,1.06411 0.82349,2.12824 1.24772,3.2246 -0.3833,0.80477 -0.7666,1.60954 -1.16151,2.4387 -3.25173,-3.02525 -5.07384,-6.36027 -7.11427,-10.36446 -0.6019,-1.16943 -1.20381,-2.33887 -1.82394,-3.54373 -1.51541,-3.16268 -1.51541,-3.16268 -2.67693,-6.82073 0.3833,-0.80477 0.7666,-1.60954 1.16152,-2.4387 z"
         fill="#f28421"
         id="path38"
         style="stroke-width:1.19008" /><path
         d="m 338.6133,127.47441 c 1.81486,2.21007 1.81486,2.21007 3.48454,4.87739 -1.2781,4.02522 -1.79461,4.45673 -5.0045,6.6826 -0.77184,0.53834 -1.54368,1.0767 -2.33891,1.63136 -1.21615,0.82637 -1.21615,0.82637 -2.45686,1.66945 -0.80628,0.56507 -1.61256,1.13014 -2.44327,1.71233 -6.02254,4.15579 -6.02254,4.15579 -8.66371,4.15579 0,-0.80477 0,-1.60954 0,-2.4387 0.91034,-0.55328 1.82067,-1.10656 2.7586,-1.6766 3.18106,-1.66497 3.18106,-1.66497 4.21048,-4.57256 0.3833,-0.75447 0.7666,-1.50894 1.16152,-2.28628 2.75859,-0.8383 2.75859,-0.8383 5.80757,-1.21934 1.55112,-0.39609 3.10078,-0.79879 4.64605,-1.21935 -0.3833,-2.41431 -0.7666,-4.82862 -1.16151,-7.31609 z"
         fill="#32a4db"
         id="path39"
         style="stroke-width:1.19008" /><path
         d="m 200.39318,583.51061 c 5.29933,3.75892 7.01462,7.21826 9.29211,13.41283 0.67077,1.13171 1.34154,2.26341 2.03265,3.42942 0.47912,0.88021 0.95824,1.76043 1.45189,2.66732 -0.3833,0.80477 -0.7666,1.60954 -1.16152,2.4387 -3.42963,-3.38124 -5.99076,-6.74788 -8.42097,-10.97414 -0.90734,-1.54667 -0.90734,-1.54667 -1.83302,-3.12458 -1.36114,-2.97216 -1.36114,-2.97216 -1.36114,-7.84955 z"
         fill="#f5831d"
         id="path40"
         style="stroke-width:1.19008" /><path
         d="m 359.52054,407.92448 c 1.16151,3.65804 1.16151,3.65804 0.264,5.75231 -0.4779,0.74711 -0.95581,1.4942 -1.4482,2.26395 -0.5173,0.81342 -1.0346,1.62683 -1.56759,2.46489 -0.55324,0.84172 -1.10648,1.68342 -1.67648,2.55063 -0.53977,0.85585 -1.07953,1.71171 -1.63564,2.59349 -1.39325,2.15931 -2.88476,4.24796 -4.38971,6.323 -0.7666,0 -1.5332,0 -2.32303,0 -0.3833,0.80476 -0.7666,1.60953 -1.16151,2.43869 0.54239,-6.21598 3.52452,-10.09549 6.96908,-14.93701 0.53901,-0.77648 1.07802,-1.55295 1.63338,-2.35297 3.88957,-5.57884 3.88957,-5.57884 5.3357,-7.09698 z"
         fill="#1b2f3d"
         id="path41"
         style="stroke-width:1.19008" /><path
         d="m 294.47578,-31.040849 c 0.3833,0 0.7666,0 1.16151,0 0.7666,6.035773 1.5332,12.071547 2.32303,18.290222 -0.7666,0 -1.5332,0 -2.32303,0 0,1.207155 0,2.414309 0,3.6580445 -1.1499,0 -2.29979,0 -3.48454,0 1.11918,-15.4487755 1.11918,-15.4487755 2.32303,-21.9482665 z"
         fill="#44b9e5"
         id="path42"
         style="stroke-width:1.19008" /><path
         d="m 261.9534,581.07191 c 0.3833,0 0.7666,0 1.16151,0 0.0317,3.25169 0.0546,6.50302 0.0726,9.75479 0.009,0.90694 0.0195,1.81388 0.0295,2.7483 0.0253,6.10598 -0.43264,11.93605 -1.2636,17.98062 -0.7666,0 -1.5332,0 -2.32303,0 -0.36326,-10.3812 0.72835,-20.24493 2.32303,-30.48371 z"
         fill="#28373f"
         id="path43"
         style="stroke-width:1.19008" /><path
         d="m 285.18367,470.11123 c 0.3833,0 0.7666,0 1.16151,0 -0.6689,8.95315 -1.97638,20.95895 -7.7041,27.90688 -0.52405,0.44797 -1.04809,0.89593 -1.588,1.35748 1.50442,-10.23034 4.66144,-19.61753 8.13059,-29.26436 z"
         fill="#143750"
         id="path44"
         style="stroke-width:1.19008" /><path
         d="m 407.1426,333.54424 c 0.3833,0.80477 0.7666,1.60954 1.16151,2.4387 -1.16893,2.91263 -2.39873,5.65763 -3.77492,8.45923 -0.36383,0.77254 -0.72767,1.54509 -1.10253,2.34105 -1.8524,3.83683 -3.56885,7.14619 -6.73768,9.92864 -0.7666,-1.60954 -1.5332,-3.21908 -2.32303,-4.8774 1.5332,-2.01192 3.06639,-4.02384 4.64605,-6.09674 0.3833,0.40239 0.7666,0.80477 1.16152,1.21935 2.29979,-4.42623 4.59959,-8.85247 6.96908,-13.41283 z"
         fill="#0d3e5d"
         id="path45"
         style="stroke-width:1.19008" /><path
         d="m 421.08076,144.54528 c 3.65734,0.71291 5.6566,1.79208 8.36199,4.45348 0.66104,0.64523 1.32209,1.29046 2.00316,1.95525 1.01401,1.01499 1.01401,1.01499 2.04853,2.0505 0.68948,0.67195 1.37898,1.3439 2.08936,2.03621 5.0711,4.99582 5.0711,4.99582 6.40421,7.79478 -4.33103,-0.68705 -6.19257,-2.4787 -9.14692,-5.7919 -2.84263,-3.1127 -5.66092,-6.05325 -8.85654,-8.76406 -0.95825,-0.82993 -1.9165,-1.65984 -2.90379,-2.51491 0,-0.40238 0,-0.80477 0,-1.21935 z"
         fill="#233a45"
         id="path46"
         style="stroke-width:1.19008" /><path
         d="m 400.17352,566.43974 c -1.30596,4.11297 -2.40832,5.06179 -5.51719,7.77334 -3.77108,3.35362 -7.30482,6.79362 -10.744,10.51688 -1.1499,-0.40239 -2.2998,-0.80477 -3.48454,-1.21935 2.02903,-2.16312 4.06219,-4.32165 6.09794,-6.47779 0.57046,-0.60907 1.14091,-1.21815 1.72866,-1.84569 8.27732,-8.74739 8.27732,-8.74739 11.91913,-8.74739 z"
         fill="#1b2a32"
         id="path47"
         style="stroke-width:1.19008" /><path
         d="m 343.25935,144.54528 c 1.1499,0.40239 2.2998,0.80477 3.48454,1.21935 0.3833,4.42623 0.7666,8.85247 1.16151,13.41283 -0.38329,-1.20715 -0.76659,-2.41431 -1.16151,-3.65804 -0.7666,0 -1.5332,0 -2.32303,0 0,-2.41431 0,-4.82862 0,-7.31609 -0.79954,0.68138 -0.79954,0.68138 -1.61523,1.37653 -1.06905,0.86529 -1.06905,0.86529 -2.15969,1.74805 -0.70071,0.57999 -1.40143,1.16 -2.12339,1.75758 -2.23228,1.21458 -2.23228,1.21458 -4.82754,0.79066 -0.67676,-0.26249 -1.35353,-0.52498 -2.0508,-0.79543 1.8525,-1.46312 3.71831,-2.90767 5.58979,-4.34393 1.5564,-1.20951 1.5564,-1.20951 3.14425,-2.44346 0.95076,-0.57685 1.90153,-1.15371 2.8811,-1.74805 z"
         fill="#298abd"
         id="path48"
         style="stroke-width:1.19008" /><path
         d="m 318.86756,55.532868 c 0.7666,0 1.5332,0 2.32303,0 2.15059,4.961199 2.95775,9.621657 3.62973,15.013224 0.19465,1.52938 0.38928,3.05876 0.58983,4.634474 0.14074,1.161576 0.28148,2.323151 0.4265,3.519917 -0.7666,0 -1.5332,0 -2.32303,0 -1.65236,-4.661824 -2.60228,-8.429122 -2.32303,-13.412829 -0.7666,0 -1.5332,0 -2.32303,0 0,-3.21908 0,-6.438159 0,-9.754786 z"
         fill="#36b1e5"
         id="path49"
         style="stroke-width:1.19008" /><path
         d="m 410.62714,322.57011 c 0.3833,0.80477 0.7666,1.60954 1.16151,2.4387 -0.93436,2.40356 -0.93436,2.40356 -2.42739,5.30606 -0.52778,1.0374 -1.05556,2.07481 -1.59934,3.14364 -0.56372,1.08455 -1.12744,2.1691 -1.70824,3.28652 -0.55923,1.09399 -1.11846,2.18796 -1.69464,3.3151 -1.38696,2.71024 -2.78241,5.41525 -4.18552,8.11629 -0.94413,-2.83601 -1.35019,-4.33531 -0.3522,-7.20266 0.43664,-0.78405 0.87328,-1.56809 1.32315,-2.37589 0.7052,-1.2885 0.7052,-1.2885 1.42467,-2.60302 0.50307,-0.88415 1.00616,-1.7683 1.52449,-2.67924 0.49409,-0.89829 0.98819,-1.79658 1.49726,-2.72209 3.6206,-6.53727 3.6206,-6.53727 5.03625,-8.02341 z"
         fill="#1d323e"
         id="path50"
         style="stroke-width:1.19008" /><path
         d="m 268.92248,-144.44023 c 2.70158,4.4314 2.51196,8.25607 2.32303,13.41283 -1.9165,0.80477 -3.833,1.60954 -5.80757,2.4387 0.3833,-4.02385 0.7666,-8.0477 1.16151,-12.19348 0.7666,0 1.5332,0 2.32303,0 0,-1.20716 0,-2.41431 0,-3.65805 z"
         fill="#f4ae18"
         id="path51"
         style="stroke-width:1.19008" /><path
         d="m 337.45178,635.94258 c 1.16152,3.65804 1.16152,3.65804 0.264,5.75231 -0.4779,0.74711 -0.95581,1.4942 -1.4482,2.26395 -0.5173,0.81342 -1.0346,1.62683 -1.56759,2.46489 -0.55324,0.84172 -1.10648,1.68342 -1.67648,2.55063 -0.53977,0.85586 -1.07953,1.71171 -1.63564,2.59349 -1.39325,2.15931 -2.88476,4.24796 -4.38971,6.323 -0.7666,0 -1.5332,0 -2.32303,0 1.64809,-4.74927 3.78387,-8.78576 6.38833,-13.03179 0.70671,-1.16157 1.41341,-2.32314 2.14154,-3.51991 1.92376,-2.95787 1.92376,-2.95787 4.24678,-5.39657 z"
         fill="#1b292f"
         id="path52"
         style="stroke-width:1.19008" /><path
         d="m 358.35903,607.89757 c 0.3833,1.20716 0.7666,2.41431 1.16151,3.65805 -0.63035,0.73561 -1.26069,1.47121 -1.91014,2.22911 -0.83098,0.97453 -1.66197,1.94906 -2.51813,2.95312 -0.822,0.96195 -1.64399,1.9239 -2.4909,2.91499 -2.37972,2.79368 -2.37972,2.79368 -4.27401,5.67759 -0.52254,0.68533 -1.0451,1.37064 -1.58347,2.07671 -0.7666,0 -1.5332,0 -2.32303,0 1.79647,-4.22369 4.1976,-7.54318 6.96909,-11.12655 0.81451,-1.05941 1.62902,-2.11881 2.46821,-3.21031 2.17784,-2.73401 2.17784,-2.73401 4.50087,-5.17271 z"
         fill="#19252b"
         id="path53"
         style="stroke-width:1.19008" /><path
         d="m 536.07061,315.25402 c 3.78484,2.64886 3.98881,2.89815 4.86384,7.23988 1.22452,6.52309 1.15594,12.96433 0.94373,19.58578 -0.3833,0 -0.7666,0 -1.16152,0 -0.78009,-3.78378 -1.55229,-7.56929 -2.32302,-11.35518 -0.2216,-1.07433 -0.44319,-2.14867 -0.67151,-3.25556 -0.20962,-1.03347 -0.41923,-2.06694 -0.6352,-3.13173 -0.19464,-0.95144 -0.38929,-1.90288 -0.58983,-2.88315 -0.42649,-2.54199 -0.42649,-2.54199 -0.42649,-6.20004 z"
         fill="#182933"
         id="path54"
         style="stroke-width:1.19008" /><path
         d="m 475.6719,498.15624 c -1.80038,4.73592 -4.65159,7.35243 -8.27578,10.6693 -1.58561,1.46179 -1.58561,1.46179 -3.20324,2.9531 -0.81152,0.73562 -1.62304,1.47123 -2.45914,2.22913 -1.1499,-0.40239 -2.2998,-0.80477 -3.48454,-1.21935 2.46186,-2.44612 4.93077,-4.88342 7.40465,-7.31609 0.70071,-0.69788 1.40143,-1.39578 2.12338,-2.11481 0.67377,-0.66016 1.34754,-1.32033 2.04173,-2.00049 0.62043,-0.613 1.24086,-1.22602 1.88009,-1.8576 1.64982,-1.34319 1.64982,-1.34319 3.97285,-1.34319 z"
         fill="#1d2b2f"
         id="path55"
         style="stroke-width:1.19008" /><path
         d="m 2.9358585,282.33162 c 0.3832995,0 0.766599,0 1.1615136,0 1.0018391,10.65936 1.6666337,20.05551 -1.1615136,30.4837 -0.3832995,0 -0.766599,0 -1.1615136,0 -0.031483,-3.70892 -0.054463,-7.41755 -0.072595,-11.12655 -0.00973,-1.04369 -0.019465,-2.08738 -0.029492,-3.16268 -0.020317,-5.54563 0.1811583,-10.73646 1.2636006,-16.19447 z"
         fill="#fa7c10"
         id="path56"
         style="stroke-width:1.19008" /><path
         d="m 356.036,275.01553 c 0.7666,0.40239 1.5332,0.80477 2.32303,1.21935 -6.67871,6.09674 -6.67871,6.09674 -9.29211,6.09674 -0.7666,2.01193 -1.5332,4.02385 -2.32303,6.09674 -1.5332,-1.20715 -3.06639,-2.41431 -4.64605,-3.65804 1.88611,-1.39917 3.77388,-2.79588 5.66238,-4.19151 1.05107,-0.77806 2.10215,-1.5561 3.18509,-2.35772 2.76766,-1.98621 2.76766,-1.98621 5.09069,-3.20556 z"
         fill="#175378"
         id="path57"
         style="stroke-width:1.19008" /><path
         d="m 193.4241,362.8086 c 2.66723,4.20005 2.95043,7.24063 3.48454,12.19348 1.91649,0.40238 3.83299,0.80477 5.80756,1.21935 -2.10524,2.43869 -2.10524,2.43869 -4.64605,4.87739 -1.1499,0 -2.2998,0 -3.48454,0 -1.53652,-6.04886 -1.26481,-12.08511 -1.16151,-18.29022 z"
         fill="#266c93"
         id="path58"
         style="stroke-width:1.19008" /><path
         d="m 300.28335,704.22607 c 0.3833,0 0.7666,0 1.16151,0 -0.62435,7.53754 -2.95702,13.81139 -5.80757,20.72892 -0.7666,0 -1.5332,0 -2.32302,0 0.5867,-7.59639 3.86324,-13.96731 6.96908,-20.72892 z"
         fill="#1b282b"
         id="path59"
         style="stroke-width:1.19008" /><path
         d="m 342.09784,435.96949 c 0,4.98081 -1.97596,7.12959 -4.64606,11.20276 -0.86242,1.32504 -1.72485,2.65008 -2.6134,4.01527 -0.67078,1.01382 -1.34155,2.02765 -2.03265,3.07219 -0.82123,-2.04336 -0.82123,-2.04336 -1.16152,-4.87739 1.58347,-3.10077 1.58347,-3.10077 3.84752,-6.32537 0.73815,-1.07355 1.47629,-2.1471 2.23682,-3.25319 2.04626,-2.61493 2.04626,-2.61493 4.36929,-3.83427 z"
         fill="#192f3d"
         id="path60"
         style="stroke-width:1.19008" /><path
         d="m 533.74758,412.80187 c 0.3833,0 0.7666,0 1.16151,0 -0.56967,7.02692 -2.22353,13.46363 -5.80756,19.50957 -1.1499,0.40239 -2.2998,0.80477 -3.48454,1.21935 1.74647,-4.61787 3.54827,-9.20907 5.372,-13.79388 0.51804,-1.30303 1.0361,-2.60607 1.56985,-3.94859 0.39229,-0.98552 0.78457,-1.97106 1.18874,-2.98645 z"
         fill="#1c2b33"
         id="path61"
         style="stroke-width:1.19008" /><path
         d="m 375.78173,588.388 c 0.3833,1.20716 0.7666,2.41431 1.16151,3.65805 -3.44969,3.62146 -6.89939,7.24292 -10.45362,10.97413 -1.1499,-0.40239 -2.29979,-0.80477 -3.48454,-1.21935 4.2163,-4.42623 8.43259,-8.85247 12.77665,-13.41283 z"
         fill="#1d2d33"
         id="path62"
         style="stroke-width:1.19008" /><path
         d="m 329.32119,456.6984 c 0,4.80393 -1.7166,7.10802 -4.0653,11.20276 -1.13193,1.98757 -1.13193,1.98757 -2.28673,4.01528 -0.88039,1.52074 -0.88039,1.52074 -1.77857,3.07219 -0.78493,-2.04336 -0.78493,-2.04336 -1.16151,-4.8774 1.32939,-3.10076 1.32939,-3.10076 3.26676,-6.32537 0.63034,-1.07355 1.26069,-2.1471 1.91014,-3.25318 1.79218,-2.61493 1.79218,-2.61493 4.11521,-3.83428 z"
         fill="#172b38"
         id="path63"
         style="stroke-width:1.19008" /><path
         d="m 316.54454,401.82774 c 1.34517,3.45648 1.22543,4.71034 -0.12705,8.24489 -0.62884,1.17729 -1.2577,2.35457 -1.9056,3.56754 -0.61688,1.18672 -1.23375,2.37344 -1.86932,3.59613 -1.9056,2.88166 -1.9056,2.88166 -5.39014,4.10101 1.65806,-4.62194 3.67312,-8.86615 5.95276,-13.1842 0.62585,-1.18987 1.2517,-2.37973 1.89653,-3.60565 0.47612,-0.89752 0.95225,-1.79502 1.44282,-2.71972 z"
         fill="#183d55"
         id="path64"
         style="stroke-width:1.19008" /><path
         d="m 369.97416,392.07295 c 0.14374,0.77962 0.28748,1.55924 0.43557,2.36249 0.35934,1.24488 0.35934,1.24488 0.72595,2.51491 0.7666,0.40238 1.53319,0.80477 2.32302,1.21934 -5.9735,5.39997 -5.9735,5.39997 -10.45362,6.09674 0.33539,-0.67903 0.67078,-1.35804 1.01633,-2.05765 1.37593,-2.85395 1.37593,-2.85395 2.46821,-6.09674 1.16152,-2.81974 1.16152,-2.81974 3.48454,-4.03909 z"
         fill="#1a3a4d"
         id="path65"
         style="stroke-width:1.19008" /><path
         d="m 465.21828,192.09986 c 3.9007,1.75237 6.27184,3.91383 9.07432,7.23988 0.72617,0.84092 1.45235,1.68185 2.20053,2.54824 0.74339,1.19066 0.74339,1.19066 1.5018,2.40536 -0.3833,1.20716 -0.7666,2.41431 -1.16152,3.65804 -1.94295,-2.1781 -3.87742,-4.36344 -5.80756,-6.55399 -0.83098,-0.92895 -0.83098,-0.92895 -1.67875,-1.87665 -4.12882,-4.70593 -4.12882,-4.70593 -4.12882,-7.42088 z"
         fill="#1b313d"
         id="path66"
         style="stroke-width:1.19008" /><path
         d="m 241.04615,204.29334 c 0.7666,0.40239 1.5332,0.80477 2.32303,1.21935 -2.26967,1.83619 -4.54478,3.66388 -6.82389,5.48707 -0.64533,0.52341 -1.29064,1.04683 -1.95553,1.5861 -4.89559,3.90096 -4.89559,3.90096 -7.48177,3.90096 1.7156,-4.69699 4.05022,-6.40737 8.1306,-8.91648 1.03011,-0.64916 2.06023,-1.29833 3.12156,-1.96715 0.88638,-0.43225 1.77276,-0.86451 2.686,-1.30985 z"
         fill="#29a2dc"
         id="path67"
         style="stroke-width:1.19008" /><path
         d="m 250.33826,557.9043 c 3.78713,3.9757 3.54804,8.40233 3.55714,13.79387 -0.0239,1.48379 -0.048,2.96759 -0.0726,4.49635 -1.64211,-3.21791 -2.75557,-6.18357 -3.48454,-9.75478 -1.1499,0.60357 -1.1499,0.60357 -2.32302,1.21934 -0.23332,-4.53108 -0.1765,-5.81882 2.32302,-9.75478 z"
         fill="#36474f"
         id="path68"
         style="stroke-width:1.19008" /><path
         d="m 5.2588857,339.64098 c 2.2821655,3.5937 3.2012729,6.2428 4.2830814,10.36446 0.3159227,1.16943 0.6318449,2.33886 0.9573409,3.54373 0.567146,3.16269 0.567146,3.16269 -0.5943679,6.82073 -0.3832995,-2.01192 -0.766599,-4.02385 -1.1615136,-6.09674 -0.766599,0 -1.5331979,0 -2.3230272,0 -1.541475,-4.85469 -1.2418428,-9.57243 -1.1615136,-14.63218 z"
         fill="#f87c15"
         id="path69"
         style="stroke-width:1.19008" /><path
         d="m 344.42086,267.69944 c 1.1499,0.40239 2.2998,0.80477 3.48454,1.21935 -1.86291,1.37228 -3.72626,2.74393 -5.58978,4.1153 -1.0376,0.7639 -2.07521,1.52781 -3.14425,2.31486 -2.106,1.53889 -4.23064,3.04977 -6.36564,4.54397 -1.1499,-0.40238 -2.2998,-0.80476 -3.48454,-1.21934 2.43427,-1.87014 4.87861,-3.72122 7.33205,-5.56328 0.69099,-0.53363 1.38197,-1.06726 2.0939,-1.61706 1.82877,-1.36211 3.74802,-2.58789 5.67372,-3.7938 z"
         fill="#1d79ac"
         id="path70"
         style="stroke-width:1.19008" /><path
         d="m 149.28658,212.82878 c 0,4.19896 -0.92447,5.7894 -2.90379,9.37374 -0.53901,0.98552 -1.07803,1.97105 -1.63337,2.98645 -0.62886,1.12463 -0.62886,1.12463 -1.27041,2.27199 -1.1499,-0.40239 -2.2998,-0.80477 -3.48454,-1.21935 0.3833,-1.20716 0.7666,-2.41431 1.16151,-3.65805 0.7666,0 1.5332,0 2.32303,0 0.31143,-1.38319 0.62286,-2.76639 0.94373,-4.19151 0.45516,-1.4335 0.91034,-2.86699 1.3793,-4.34392 1.1499,-0.40239 2.2998,-0.80477 3.48454,-1.21935 z"
         fill="#f79823"
         id="path71"
         style="stroke-width:1.19008" /><path
         d="m 232.91556,594.48474 c 3.85225,6.06611 5.09299,13.45634 4.64605,20.72892 -0.7666,0 -1.5332,0 -2.32302,0 -0.39154,-2.53957 -0.77767,-5.08006 -1.16152,-7.62092 -0.21561,-1.41464 -0.43121,-2.82927 -0.65335,-4.28678 -0.50816,-3.94382 -0.50816,-3.94382 -0.50816,-8.82122 z"
         fill="#ec8626"
         id="path72"
         style="stroke-width:1.19008" /><path
         d="m 210.8468,529.85929 c 2.93159,3.81033 5.1072,7.69792 6.96908,12.19348 -0.3833,0.80477 -0.7666,1.60954 -1.16151,2.4387 -3.89877,-2.7286 -4.15817,-3.57659 -5.4446,-8.07818 -0.29197,-0.99654 -0.58394,-1.99306 -0.88475,-3.01979 -0.21111,-0.76391 -0.42223,-1.52781 -0.63973,-2.31486 0.3833,-0.40238 0.7666,-0.80477 1.16151,-1.21935 z"
         fill="#ef8322"
         id="path73"
         style="stroke-width:1.19008" /><path
         d="m 359.52054,271.35749 c 0.7666,0.40238 1.5332,0.80477 2.32303,1.21935 -1.52449,1.82902 -1.52449,1.82902 -3.48454,3.65804 -1.1499,0 -2.2998,0 -3.48454,0 0,-0.80477 0,-1.60954 0,-2.4387 2.17783,-1.29555 2.17783,-1.29555 4.64605,-2.43869 z m -2.32303,4.87739 c 0.3833,1.20716 0.7666,2.41431 1.16152,3.65804 -1.1499,0.40239 -2.2998,0.80477 -3.48454,1.21935 0,0.80477 0,1.60954 0,2.4387 -1.9165,0 -3.833,0 -5.80757,0 0.91033,-0.75447 1.82067,-1.50894 2.75859,-2.28628 3.01224,-2.46746 3.01224,-2.46746 5.372,-5.02981 z"
         fill="#17628b"
         id="path74"
         style="stroke-width:1.19008" /><path
         d="m 357.19751,199.41595 c 2.24454,4.07896 2.95766,7.86195 3.62973,12.49832 0.19465,1.31404 0.38928,2.62807 0.58983,3.98192 0.14074,0.99969 0.28148,1.99936 0.4265,3.02933 -0.3833,-0.80477 -0.7666,-1.60954 -1.16152,-2.4387 -0.76659,0 -1.53319,0 -2.32302,0 -0.42401,-1.92762 -0.83235,-3.85904 -1.23411,-5.7919 -0.22909,-1.07513 -0.45816,-2.15025 -0.69419,-3.25795 -0.39271,-3.12752 -0.17589,-5.05913 0.76678,-8.02102 z"
         fill="#2688bb"
         id="path75"
         style="stroke-width:1.19008" /><path
         d="m 395.52746,353.05381 c 0.3833,0.80477 0.7666,1.60954 1.16152,2.4387 -1.66515,3.17221 -1.66515,3.17221 -3.99271,6.85883 -1.14765,1.83432 -1.14765,1.83432 -2.31849,3.70567 -0.6004,0.93995 -1.2008,1.8799 -1.8194,2.84833 -0.83031,-2.07671 -0.83031,-2.07671 -1.16151,-4.87739 1.66513,-2.87691 1.66513,-2.87691 3.9927,-5.79191 1.14765,-1.46179 1.14765,-1.46179 2.31849,-2.95311 0.60041,-0.73561 1.2008,-1.47122 1.8194,-2.22912 z"
         fill="#192f3d"
         id="path76"
         style="stroke-width:1.19008" /><path
         d="m 330.4827,155.51942 c -1.62395,4.11994 -3.28578,6.27986 -6.96908,8.53543 -3.77492,0.8383 -3.77492,0.8383 -6.96908,1.21935 8.62838,-9.75478 8.62838,-9.75478 13.93816,-9.75478 z"
         fill="#1b83bc"
         id="path77"
         style="stroke-width:1.19008" /><path
         d="m 217.81588,545.71082 c 2.0799,3.2752 3.09028,5.6854 4.21049,9.37374 0.30244,0.98552 0.60489,1.97105 0.9165,2.98645 0.22459,0.74975 0.44918,1.4995 0.68058,2.27199 -1.1499,0 -2.2998,0 -3.48454,0 -2.32054,-5.02441 -2.5302,-9.08651 -2.32303,-14.63218 z"
         fill="#ef8321"
         id="path78"
         style="stroke-width:1.19008" /><path
         d="m 505.87125,462.79514 c 0.3833,1.20716 0.7666,2.41431 1.16152,3.65805 -1.58347,2.49109 -1.58347,2.49109 -3.84752,5.10602 -0.73815,0.87236 -1.4763,1.74472 -2.23682,2.64351 -2.04626,2.00525 -2.04626,2.00525 -4.36928,2.00525 1.58395,-3.64853 3.42539,-6.45068 5.95275,-9.44994 0.62586,-0.74818 1.25171,-1.49638 1.89653,-2.26724 0.7142,-0.83933 0.7142,-0.83933 1.44282,-1.69565 z"
         fill="#1f2d31"
         id="path79"
         style="stroke-width:1.19008" /><path
         d="m 37.781266,412.80187 c 4.258884,4.47095 8.517767,8.94188 12.77665,13.41283 -0.3833,0.80477 -0.766599,1.60954 -1.161514,2.4387 -10.23931,-8.44934 -10.23931,-8.44934 -11.615136,-15.85153 z"
         fill="#f67713"
         id="path80"
         style="stroke-width:1.19008" /><path
         d="m 411.78865,316.47337 c 1.96164,3.14953 2.32641,4.79029 2.17784,8.61164 -1.1558,4.07337 -2.22498,5.14459 -5.66238,7.23988 0.61089,-2.03706 0.61089,-2.03706 1.23411,-4.1153 1.52146,-4.17948 1.52146,-4.17948 -0.0726,-6.85883 1.08891,-2.59111 1.08891,-2.59111 2.32302,-4.87739 z"
         fill="#17425a"
         id="path81"
         style="stroke-width:1.19008" /><path
         d="m 227.10799,481.08537 c 0.7666,0 1.5332,0 2.32303,0 0.84472,1.92014 1.66236,3.85343 2.46821,5.7919 0.45816,1.07512 0.91632,2.15025 1.38837,3.25794 0.78947,3.14364 0.78947,3.14364 -0.23592,5.98243 -0.42823,0.67274 -0.85645,1.34547 -1.29764,2.0386 -0.77858,-2.38637 -1.55195,-4.77461 -2.32302,-7.16367 -0.43121,-1.32976 -0.86243,-2.65951 -1.30671,-4.02957 -1.01632,-3.43894 -1.01632,-3.43894 -1.01632,-5.87763 z"
         fill="#27455b"
         id="path82"
         style="stroke-width:1.19008" /><path
         d="m 222.46194,464.01449 c 2.32302,1.21935 2.32302,1.21935 3.31212,4.00576 0.29647,1.11755 0.59292,2.23511 0.89836,3.38654 0.30245,1.1207 0.6049,2.24141 0.91651,3.39608 0.22459,0.86607 0.44918,1.73213 0.68057,2.62445 -0.7666,0.80477 -1.53319,1.60954 -2.32302,2.4387 -0.14374,-0.98082 -0.28748,-1.96163 -0.43557,-2.97216 -0.35935,-1.54667 -0.35935,-1.54667 -0.72595,-3.12458 -0.7666,-0.40239 -1.53319,-0.80477 -2.32302,-1.21935 0,-2.81669 0,-5.63339 0,-8.53544 z"
         fill="#26475d"
         id="path83"
         style="stroke-width:1.19008" /><path
         d="m 236.4001,162.8355 c 0.3833,0 0.7666,0 1.16151,0 -0.69249,5.93696 -1.82331,11.37397 -3.48454,17.07088 -0.7666,0 -1.5332,0 -2.32303,0 0.73358,-6.16083 2.47936,-11.33498 4.64606,-17.07088 z"
         fill="#2eaae1"
         id="path84"
         style="stroke-width:1.19008" /><path
         d="m 245.69221,544.49147 c 0.3833,0.80477 0.7666,1.60954 1.16151,2.4387 0.7666,0 1.5332,0 2.32303,0 0.45372,1.74772 0.88505,3.50188 1.3067,5.25843 0.24256,0.9761 0.48511,1.95221 0.73502,2.95787 0.28131,2.75783 0.28131,2.75783 -2.04172,6.41587 -0.58623,-2.15763 -1.16571,-4.31728 -1.74227,-6.47778 -0.32341,-1.20244 -0.64683,-2.40489 -0.98003,-3.64376 -0.76224,-3.29129 -0.76224,-3.29129 -0.76224,-6.94933 z"
         fill="#2c4759"
         id="path85"
         style="stroke-width:1.19008" /><path
         d="m 44.750348,423.776 c 4.104473,2.3938 7.253418,4.92704 10.453622,8.53544 -0.383299,1.20716 -0.766599,2.41431 -1.161513,3.65805 -1.55561,-1.56745 -3.102735,-3.14419 -4.646055,-4.72498 -1.293636,-1.31561 -1.293636,-1.31561 -2.613405,-2.6578 -2.032649,-2.37201 -2.032649,-2.37201 -2.032649,-4.81071 z"
         fill="#f28928"
         id="path86"
         style="stroke-width:1.19008" /><path
         d="m 225.94648,216.48682 c 0,0.80477 0,1.60954 0,2.4387 -2.03265,1.57181 -2.03265,1.57181 -4.64606,3.20079 -0.86242,0.54385 -1.72485,1.08769 -2.6134,1.64802 -0.67078,0.41182 -1.34155,0.82363 -2.03265,1.24793 -0.3833,-2.01193 -0.7666,-4.02385 -1.16152,-6.09674 7.84022,-2.4387 7.84022,-2.4387 10.45363,-2.4387 z"
         fill="#26a5df"
         id="path87"
         style="stroke-width:1.19008" /><path
         d="m 268.92248,-66.401945 c 1.1499,0 2.2998,0 3.48454,0 -0.3833,5.231004 -0.7666,10.462007 -1.16151,15.851526 -0.3833,0 -0.7666,0 -1.16152,0 -0.3833,-2.011924 -0.7666,-4.023849 -1.16151,-6.096741 -0.3833,0 -0.7666,0 -1.16151,0 0.3833,-3.219079 0.7666,-6.438158 1.16151,-9.754785 z"
         fill="#f4b325"
         id="path88"
         style="stroke-width:1.19008" /><path
         d="m 288.66821,560.343 c 0.3833,0 0.7666,0 1.16151,0 -1.11918,12.87398 -1.11918,12.87398 -2.32302,18.29022 -0.3833,0 -0.7666,0 -1.16152,0 -0.0631,-2.13344 -0.1079,-4.26748 -0.14519,-6.40158 -0.0404,-1.78244 -0.0404,-1.78244 -0.0817,-3.60089 0.22845,-3.43432 0.87069,-5.37289 2.54988,-8.28775 z"
         fill="#14222d"
         id="path89"
         style="stroke-width:1.19008" /><path
         d="m 277.05308,192.09986 c 0.76659,0.40238 1.53319,0.80477 2.32302,1.21935 -3.68572,4.31144 -6.00205,6.81101 -11.61513,7.31609 2.9942,-3.22825 5.71055,-6.02885 9.29211,-8.53544 z"
         fill="#1a84bb"
         id="path90"
         style="stroke-width:1.19008" /><path
         d="m 243.36918,532.29799 c 2.37204,2.06288 3.38922,3.21576 4.07891,6.41587 0.0674,0.9761 0.13475,1.95219 0.20417,2.95787 0.0763,0.98552 0.15272,1.97105 0.2314,2.98645 0.0434,0.74975 0.0869,1.4995 0.13158,2.27199 -2.37205,-2.06289 -3.38922,-3.21577 -4.07892,-6.41587 -0.0674,-0.9761 -0.13475,-1.95219 -0.20417,-2.95787 -0.0763,-0.98553 -0.15272,-1.97105 -0.23139,-2.98645 -0.0434,-0.74976 -0.0869,-1.49951 -0.13158,-2.27199 z"
         fill="#193850"
         id="path91"
         style="stroke-width:1.19008" /><path
         d="m 57.526997,438.40818 c 4.551297,1.59264 7.34821,3.45234 10.453623,7.31609 0,0.80477 0,1.60954 0,2.4387 -4.964606,-1.9303 -7.277251,-5.494 -10.453623,-9.75479 z"
         fill="#f48523"
         id="path92"
         style="stroke-width:1.19008" /><path
         d="m 313.06,483.52406 c 1.1499,0.40239 2.29979,0.80477 3.48454,1.21935 -0.57881,4.49641 -1.27846,6.83434 -4.64606,9.75479 -0.94045,-3.5542 -1.41525,-5.43967 -0.0726,-8.91649 0.40725,-0.67903 0.81451,-1.35805 1.23411,-2.05765 z"
         fill="#184055"
         id="path93"
         style="stroke-width:1.19008" /><path
         d="m 378.10476,382.31817 c 0,4.14082 -0.60592,4.95811 -2.90379,8.15439 -0.53901,0.75919 -1.07803,1.51837 -1.63337,2.30057 -0.41924,0.57371 -0.83848,1.14742 -1.27041,1.73852 -0.75317,-2.23388 -0.75317,-2.23388 -1.16151,-4.87739 2.75859,-3.277 2.75859,-3.277 5.80756,-6.09674 0.3833,-0.40239 0.7666,-0.80477 1.16152,-1.21935 z"
         fill="#162c3b"
         id="path94"
         style="stroke-width:1.19008" /><path
         d="m 223.62345,372.56338 c 0.7666,0.40239 1.5332,0.80477 2.32303,1.21935 -1.49795,1.67737 -3.05117,3.30158 -4.64606,4.87739 -0.7666,0 -1.5332,0 -2.32302,0 0,0.80477 0,1.60954 0,2.4387 -1.5332,-0.40239 -3.0664,-0.80477 -4.64606,-1.21935 3.0664,-2.41431 6.13279,-4.82862 9.29211,-7.31609 z"
         fill="#1a4e6f"
         id="path95"
         style="stroke-width:1.19008" /><path
         d="m 328.15967,281.11227 c -1.16151,3.65805 -1.16151,3.65805 -3.9201,5.79191 -3.04898,1.52418 -3.04898,1.52418 -6.53352,0.30483 2.73236,-4.3026 5.43527,-6.09674 10.45362,-6.09674 z"
         fill="#1877ae"
         id="path96"
         style="stroke-width:1.19008" /><path
         d="m 421.08076,156.73876 c 0.3833,0.80477 0.7666,1.60954 1.16152,2.4387 1.14989,0 2.29979,0 3.48454,0 0.3833,2.01192 0.7666,4.02385 1.16151,6.09674 -0.7666,0 -1.5332,0 -2.32303,0 -0.3833,1.20716 -0.7666,2.41431 -1.16151,3.65804 -0.7666,-4.02384 -1.5332,-8.04769 -2.32303,-12.19348 z"
         fill="#244558"
         id="path97"
         style="stroke-width:1.19008" /><path
         d="m 239.88464,629.84584 c 0.3833,0 0.7666,0 1.16151,0 0.3833,6.43816 0.7666,12.87631 1.16152,19.50957 -0.3833,-1.60954 -0.7666,-3.21908 -1.16152,-4.87739 -0.7666,0 -1.53319,0 -2.32302,0 0.3833,-4.82862 0.7666,-9.65724 1.16151,-14.63218 z"
         fill="#e68626"
         id="path98"
         style="stroke-width:1.19008" /><path
         d="m 54.042457,432.31144 c 3.449695,0.60358 3.449695,0.60358 6.969081,1.21935 0,2.4387 0,4.87739 0,7.31609 -5.575265,-3.00148 -5.575265,-3.00148 -6.751298,-6.32537 -0.07186,-0.72932 -0.143737,-1.45865 -0.217783,-2.21007 z"
         fill="#f87e17"
         id="path99"
         style="stroke-width:1.19008" /><path
         d="m 212.00831,381.09882 c 0.7666,0.40238 1.5332,0.80477 2.32303,1.21935 -1.49795,1.67737 -3.05117,3.30158 -4.64605,4.87739 -0.7666,0 -1.5332,0 -2.32303,0 0,0.80477 0,1.60954 0,2.4387 -1.5332,-0.40239 -3.0664,-0.80477 -4.64606,-1.21935 3.0664,-2.41431 6.1328,-4.82862 9.29211,-7.31609 z"
         fill="#1f516d"
         id="path100"
         style="stroke-width:1.19008" /><path
         d="m 328.15967,294.5251 c 0.7666,0.40239 1.5332,0.80477 2.32303,1.21935 -0.14519,2.13386 -0.14519,2.13386 -1.16151,4.87739 -3.55714,2.74354 -3.55714,2.74354 -6.96908,4.8774 -0.3833,-0.80477 -0.7666,-1.60954 -1.16152,-2.4387 0.95825,-0.52814 1.9165,-1.05626 2.90379,-1.6004 1.43737,-1.01853 1.43737,-1.01853 2.90378,-2.05765 0,-1.20715 0,-2.4143 0,-3.65804 0.3833,-0.40238 0.7666,-0.80477 1.16151,-1.21935 z"
         fill="#135980"
         id="path101"
         style="stroke-width:1.19008" /><path
         d="m 7.5819129,257.94466 c 0.3832995,0 0.766599,0 1.1615136,0 -0.55921,5.87054 -0.9302083,9.26914 -3.4845408,14.63218 0,-4.02385 0,-8.0477 0,-12.19349 0.766599,0 1.533198,0 2.3230272,0 0,-0.80477 0,-1.60953 0,-2.43869 z"
         fill="#f88316"
         id="path102"
         style="stroke-width:1.19008" /><path
         d="m 162.06323,186.00312 c 1.1499,0.40238 2.2998,0.80477 3.48454,1.21935 -1.37736,4.11535 -2.6433,6.88594 -5.80757,9.75478 0.56424,-3.80791 1.15989,-7.31097 2.32303,-10.97413 z"
         fill="#f59a22"
         id="path103"
         style="stroke-width:1.19008" /><path
         d="m 313.06,21.391121 c 0.3833,0 0.7666,0 1.16151,0 0.7666,5.231003 1.5332,10.462007 2.32303,15.851526 -1.1499,-0.80477 -2.2998,-1.60954 -3.48454,-2.438697 -0.34029,-3.172207 -0.34029,-3.172207 -0.21779,-6.858833 0.0315,-1.222872 0.0628,-2.445744 0.0952,-3.705672 0.0404,-0.939947 0.0808,-1.879894 0.1225,-2.848324 z"
         fill="#44b6e4"
         id="path104"
         style="stroke-width:1.19008" /><path
         d="m 206.20075,593.26539 c 3.03737,2.88493 5.09903,5.92663 6.96908,9.75479 -0.3833,0.80477 -0.7666,1.60954 -1.16152,2.4387 -4.26543,-3.7556 -5.30583,-6.39946 -5.80756,-12.19349 z"
         fill="#f77c14"
         id="path105"
         style="stroke-width:1.19008" /><path
         d="m 155.09415,195.7579 c 0.7666,0 1.53319,0 2.32302,0 0.72595,2.28628 0.72595,2.28628 1.16152,4.8774 -0.7666,0.80477 -1.5332,1.60954 -2.32303,2.43869 -1.1499,0 -2.2998,0 -3.48454,0 1.01632,-5.94432 1.01632,-5.94432 2.32303,-7.31609 z"
         fill="#f79b22"
         id="path106"
         style="stroke-width:1.19008" /><path
         d="m 275.89156,500.59494 c 0.3833,0 0.7666,0 1.16152,0 0.43221,9.22601 0.43221,9.22601 -1.75589,11.90293 -0.57045,0.49826 -1.14092,0.99653 -1.72866,1.5099 0.16387,-1.77879 0.33454,-3.55689 0.50817,-5.33465 0.0943,-0.99025 0.18865,-1.98049 0.28583,-3.00074 0.36752,-2.63875 0.36752,-2.63875 1.52903,-5.07744 z"
         fill="#0f3046"
         id="path107"
         style="stroke-width:1.19008" /><path
         d="m 300.28335,437.18883 c 0,4.71517 -1.64831,7.93656 -3.48454,12.19349 -0.3833,0 -0.7666,0 -1.16152,0 0.71478,-7.95391 0.71478,-7.95391 2.97638,-10.89793 0.82649,-0.6413 0.82649,-0.6413 1.66968,-1.29556 z"
         fill="#1d445d"
         id="path108"
         style="stroke-width:1.19008" /><path
         d="m 394.36595,357.93121 c 0.3833,0.80476 0.7666,1.60953 1.16151,2.43869 -1.92705,5.00429 -3.73663,8.11106 -8.13059,10.97413 1.6847,-5.01102 4.0782,-9.06291 6.96908,-13.41282 z"
         fill="#0f405a"
         id="path109"
         style="stroke-width:1.19008" /><path
         d="m 397.85049,345.73772 c 0.7666,1.20716 1.5332,2.41431 2.32303,3.65805 -1.01633,3.88667 -1.01633,3.88667 -2.32303,7.31609 -1.1499,-0.80477 -2.2998,-1.60954 -3.48454,-2.4387 2.17784,-5.7919 2.17784,-5.7919 3.48454,-8.53544 z"
         fill="#1f4255"
         id="path110"
         style="stroke-width:1.19008" /><path
         d="m 523.29396,279.89292 c 0.7666,0 1.5332,0 2.32303,0 0.2156,1.16943 0.2156,1.16943 0.43556,2.36249 0.35934,1.24488 0.35934,1.24488 0.72595,2.51491 0.7666,0.40238 1.5332,0.80477 2.32303,1.21935 -0.3833,1.20715 -0.7666,2.4143 -1.16152,3.65804 -3.36761,-2.92045 -4.06725,-5.25838 -4.64605,-9.75479 z"
         fill="#1e323c"
         id="path111"
         style="stroke-width:1.19008" /><path
         d="m 227.10799,186.00312 c 0.3833,0 0.7666,0 1.16151,0 0.42887,6.60323 0.42887,6.60323 -1.74227,10.21204 -0.57495,0.65387 -1.1499,1.30775 -1.74227,1.98144 -1.61678,-5.09185 0.20532,-7.4804 2.32303,-12.19348 z"
         fill="#2fa9df"
         id="path112"
         style="stroke-width:1.19008" /><path
         d="m 349.06692,618.87171 c 1.1499,0.40238 2.2998,0.80477 3.48454,1.21934 -1.87695,2.48894 -3.81632,4.92706 -5.80757,7.31609 -0.7666,0 -1.5332,0 -2.32303,0 1.39825,-3.04059 2.8507,-5.70829 4.64606,-8.53543 z"
         fill="#1e2d32"
         id="path113"
         style="stroke-width:1.19008" /><path
         d="m 189.93955,568.87843 c 5.66238,5.63949 5.66238,5.63949 6.96909,9.75479 -1.1499,0 -2.2998,0 -3.48454,0 -2.44814,-3.52189 -3.48455,-5.34638 -3.48455,-9.75479 z"
         fill="#f57e18"
         id="path114"
         style="stroke-width:1.19008" /><path
         d="m 426.88833,270.13814 c 0.3833,0 0.7666,0 1.16151,0 -0.3833,3.62146 -0.7666,7.24293 -1.16151,10.97413 -0.7666,0 -1.5332,0 -2.32303,0 -0.3833,0.80477 -0.7666,1.60954 -1.16151,2.4387 0.64006,-4.81552 1.61375,-8.96123 3.48454,-13.41283 z"
         fill="#1b3544"
         id="path115"
         style="stroke-width:1.19008" /><path
         d="m 258.46886,590.8267 c 2.09551,3.36447 2.3378,4.74292 1.88746,8.84027 -0.23957,1.10656 -0.47913,2.21312 -0.72595,3.35321 -2.14954,-3.80798 -2.664,-6.55937 -2.32303,-10.97413 0.3833,-0.40239 0.7666,-0.80477 1.16152,-1.21935 z"
         fill="#304550"
         id="path116"
         style="stroke-width:1.19008" /><path
         d="m 359.52054,407.92448 c 0.3833,1.20715 0.7666,2.41431 1.16151,3.65804 -1.91649,2.01193 -3.83299,4.02385 -5.80756,6.09674 0,-4.76568 1.74886,-6.23811 4.64605,-9.75478 z"
         fill="#223947"
         id="path117"
         style="stroke-width:1.19008" /><path
         d="m 200.39318,389.63426 c 0.7666,0.40238 1.5332,0.80477 2.32302,1.21934 -0.76659,2.8167 -1.53319,5.63339 -2.32302,8.53544 -0.7666,-0.80477 -1.5332,-1.60954 -2.32303,-2.43869 0.64528,-5.55482 0.64528,-5.55482 2.32303,-7.31609 z"
         fill="#346074"
         id="path118"
         style="stroke-width:1.19008" /><path
         d="m 263.11491,343.29903 c 0.3833,1.20715 0.7666,2.41431 1.16152,3.65804 -2.03265,1.90523 -2.03265,1.90523 -4.64606,3.65805 -1.5332,-0.40239 -3.06639,-0.80477 -4.64605,-1.21935 2.68309,-2.01193 5.36619,-4.02385 8.13059,-6.09674 z"
         fill="#184f70"
         id="path119"
         style="stroke-width:1.19008" /><path
         d="m 261.9534,-11.531279 c 1.52417,4.800208 0.2822,7.4683612 -1.16152,12.19348155 -1.66032,-2.87082105 -2.42362,-4.24372165 -1.88745,-7.62092585 0.23956,-0.7041735 0.47912,-1.4083471 0.72594,-2.1338592 0.7666,0 1.5332,0 2.32303,0 0,-0.8047698 0,-1.6095395 0,-2.4386965 z"
         fill="#f3b01f"
         id="path120"
         style="stroke-width:1.19008" /><path
         d="m 218.9774,624.96845 c 0.76659,1.60954 1.53319,3.21908 2.32302,4.87739 -1.1499,-1.20716 -2.29979,-2.41431 -3.48454,-3.65805 0.3833,-0.40238 0.7666,-0.80477 1.16152,-1.21934 z"
         fill="#e78521"
         id="path121"
         style="stroke-width:1.19008" /><path
         d="m 220.13891,466.45319 c 0,1.20715 0,2.41431 0,3.65804 -0.7666,-0.80477 -1.5332,-1.60954 -2.32303,-2.43869 0.7666,-0.40239 1.5332,-0.80477 2.32303,-1.21935 z"
         fill="#576463"
         id="path122"
         style="stroke-width:1.19008" /><path
         d="m 329.32119,146.98398 c 1.91649,0 3.83299,0 5.80757,0 0,0.40238 0,0.80477 0,1.21935 -1.9165,0 -3.833,0 -5.80757,0 0,-0.40239 0,-0.80477 0,-1.21935 z"
         fill="#44a9d6"
         id="path123"
         style="stroke-width:1.19008" /><path
         d="m 301.44486,500.59494 c 1.1499,0.60357 1.1499,0.60357 2.32303,1.21934 -0.3833,0.80477 -0.7666,1.60954 -1.16152,2.4387 -0.3833,-1.20715 -0.76659,-2.41431 -1.16151,-3.65804 z"
         fill="#1b465c"
         id="path124"
         style="stroke-width:1.19008" /><path
         d="m 209.68529,435.96949 c 1.16151,4.87739 1.16151,4.87739 1.16151,4.87739 z"
         fill="#4f6568"
         id="path125"
         style="stroke-width:1.19008" /><path
         d="m 189.93955,303.06054 c 1.16152,4.87739 1.16152,4.87739 1.16152,4.87739 z"
         fill="#5393ad"
         id="path126"
         style="stroke-width:1.19008" /><path
         d="m 308.41394,166.49355 c 0.7666,0.40238 1.5332,0.80477 2.32303,1.21935 -1.1499,0 -2.2998,0 -3.48454,0 0.3833,-0.40239 0.7666,-0.80477 1.16151,-1.21935 z"
         fill="#32a2d3"
         id="path127"
         style="stroke-width:1.19008" /><path
         d="m 236.4001,154.30007 c 0.7666,0 1.5332,0 2.32303,0 0,0.80477 0,1.60954 0,2.43869 -0.7666,0 -1.5332,0 -2.32303,0 0,-0.80477 0,-1.60954 0,-2.43869 z"
         fill="#65b8d1"
         id="path128"
         style="stroke-width:1.19008" /><path
         d="m 317.70605,33.584602 c 1.16151,4.877393 1.16151,4.877393 1.16151,4.877393 z"
         fill="#60bbda"
         id="path129"
         style="stroke-width:1.19008" /><path
         d="m 316.54454,27.487861 c 1.16151,4.877393 1.16151,4.877393 1.16151,4.877393 z"
         fill="#64bad8"
         id="path130"
         style="stroke-width:1.19008" /><path
         d="m 309.57546,-9.0925825 c 1.16151,4.8773925 1.16151,4.8773925 1.16151,4.8773925 z"
         fill="#75b6ca"
         id="path131"
         style="stroke-width:1.19008" /><path
         d="m 250.33826,573.75582 c 0.3833,0.80477 0.7666,1.60954 1.16152,2.4387 -0.7666,-0.40238 -1.5332,-0.80477 -2.32303,-1.21935 0.3833,-0.40238 0.7666,-0.80477 1.16151,-1.21935 z"
         fill="#6b6250"
         id="path133"
         style="stroke-width:1.19008" /><path
         d="m 237.56161,526.20125 c 0.7666,0.80477 1.5332,1.60954 2.32303,2.43869 -0.7666,0 -1.5332,0 -2.32303,0 0,-0.80477 0,-1.60954 0,-2.43869 z"
         fill="#5e615b"
         id="path136"
         style="stroke-width:1.19008" /><path
         d="m 229.43102,495.71754 c 0.3833,0.80477 0.7666,1.60954 1.16151,2.4387 -0.7666,-0.40238 -1.5332,-0.80477 -2.32303,-1.21935 0.3833,-0.40238 0.7666,-0.80477 1.16152,-1.21935 z"
         fill="#5e635c"
         id="path137"
         style="stroke-width:1.19008" /><path
         d="m 228.2695,493.27885 c 0.3833,0.80477 0.7666,1.60954 1.16152,2.43869 -0.7666,-0.40238 -1.5332,-0.80477 -2.32303,-1.21934 0.3833,-0.40239 0.7666,-0.80477 1.16151,-1.21935 z"
         fill="#5e635d"
         id="path138"
         style="stroke-width:1.19008" /><path
         d="m 222.46194,476.20797 c 0.3833,0.80477 0.76659,1.60954 1.16151,2.4387 -0.7666,-0.40238 -1.5332,-0.80477 -2.32303,-1.21935 0.3833,-0.40238 0.7666,-0.80477 1.16152,-1.21935 z"
         fill="#556363"
         id="path139"
         style="stroke-width:1.19008" /><path
         d="m 218.9774,464.01449 c 0.38329,0.80477 0.76659,1.60954 1.16151,2.4387 -0.7666,-0.40239 -1.5332,-0.80477 -2.32303,-1.21935 0.3833,-0.40238 0.7666,-0.80477 1.16152,-1.21935 z"
         fill="#586462"
         id="path140"
         style="stroke-width:1.19008" /><path
         d="m 237.56161,351.83446 c 1.1499,0.60358 1.1499,0.60358 2.32303,1.21935 -1.1499,0.60358 -1.1499,0.60358 -2.32303,1.21935 0,-0.80477 0,-1.60954 0,-2.4387 z"
         fill="#1e719e"
         id="path141"
         style="stroke-width:1.19008" /><path
         d="m 412.95017,303.06054 c 0.7666,0 1.53319,0 2.32302,0 -0.3833,0.80477 -0.7666,1.60954 -1.16151,2.4387 -0.3833,-0.80477 -0.7666,-1.60954 -1.16151,-2.4387 z"
         fill="#225168"
         id="path142"
         style="stroke-width:1.19008" /><path
         d="m 208.52377,231.119 c 0.7666,0 1.5332,0 2.32303,0 -0.3833,0.80477 -0.7666,1.60954 -1.16151,2.4387 -0.3833,-0.80477 -0.7666,-1.60954 -1.16152,-2.4387 z"
         fill="#589fbc"
         id="path144"
         style="stroke-width:1.19008" /><path
         d="m 208.52377,216.48682 c 1.1499,0.60358 1.1499,0.60358 2.32303,1.21935 -1.1499,0.60358 -1.1499,0.60358 -2.32303,1.21935 0,-0.80477 0,-1.60954 0,-2.4387 z"
         fill="#6aabc3"
         id="path146"
         style="stroke-width:1.19008" /><path
         d="m 422.24228,188.44181 c 0.76659,0.80477 1.53319,1.60954 2.32302,2.4387 -0.7666,0 -1.5332,0 -2.32302,0 0,-0.80477 0,-1.60954 0,-2.4387 z"
         fill="#315a6c"
         id="path148"
         style="stroke-width:1.19008" /><path
         d="m 284.02216,177.46768 c 1.1499,0.60358 1.1499,0.60358 2.32302,1.21935 -1.14989,0.60358 -1.14989,0.60358 -2.32302,1.21935 0,-0.80477 0,-1.60954 0,-2.4387 z"
         fill="#35a5db"
         id="path149"
         style="stroke-width:1.19008" /><path
         d="m 302.60637,170.15159 c 1.1499,0.60358 1.1499,0.60358 2.32303,1.21935 -1.1499,0.60358 -1.1499,0.60358 -2.32303,1.21935 0,-0.80477 0,-1.60954 0,-2.4387 z"
         fill="#34a2d4"
         id="path150"
         style="stroke-width:1.19008" /><path
         d="m 301.44486,164.05485 c 0.3833,0.80477 0.7666,1.60954 1.16151,2.4387 -0.76659,-0.40239 -1.53319,-0.80477 -2.32302,-1.21935 0.3833,-0.40238 0.7666,-0.80477 1.16151,-1.21935 z"
         fill="#39a7d9"
         id="path151"
         style="stroke-width:1.19008" /><path
         d="m 329.32119,150.64202 c 0.7666,0.80477 1.5332,1.60954 2.32302,2.4387 -0.76659,0 -1.53319,0 -2.32302,0 0,-0.80477 0,-1.60954 0,-2.4387 z"
         fill="#3ea2d1"
         id="path152"
         style="stroke-width:1.19008" /><path
         d="m 238.72313,150.64202 c 0.3833,0.80477 0.7666,1.60954 1.16151,2.4387 -0.7666,-0.40239 -1.5332,-0.80477 -2.32303,-1.21935 0.3833,-0.40238 0.7666,-0.80477 1.16152,-1.21935 z"
         fill="#65b9d0"
         id="path153"
         style="stroke-width:1.19008" /><path
         d="m 331.64421,142.10659 c 0.3833,0.80477 0.7666,1.60954 1.16152,2.43869 -0.7666,-0.40238 -1.5332,-0.80477 -2.32303,-1.21935 0.3833,-0.40238 0.7666,-0.80477 1.16151,-1.21934 z"
         fill="#46a9d3"
         id="path154"
         style="stroke-width:1.19008" /><path
         d="m 335.12876,107.96484 c 0.76659,0.80477 1.53319,1.60954 2.32302,2.43869 -0.7666,0 -1.5332,0 -2.32302,0 0,-0.80477 0,-1.60954 0,-2.43869 z"
         fill="#52afd4"
         id="path156"
         style="stroke-width:1.19008" /><path
         d="m 257.30734,98.210053 c 1.1499,0.603577 1.1499,0.603577 2.32303,1.219348 -1.1499,0.603579 -1.1499,0.603579 -2.32303,1.219349 0,-0.80477 0,-1.60954 0,-2.438697 z"
         fill="#6dbcce"
         id="path157"
         style="stroke-width:1.19008" /><path
         d="m 266.59945,75.042439 c 0.7666,0 1.5332,0 2.32303,0 -0.3833,0.804769 -0.7666,1.609539 -1.16151,2.438696 -0.3833,-0.80477 -0.7666,-1.60954 -1.16152,-2.438696 z"
         fill="#6dbccf"
         id="path159"
         style="stroke-width:1.19008" /><path
         d="m 270.08399,68.945698 c 0.3833,0.80477 0.7666,1.609539 1.16152,2.438696 -0.7666,-0.402385 -1.5332,-0.80477 -2.32303,-1.219348 0.3833,-0.402385 0.7666,-0.80477 1.16151,-1.219348 z"
         fill="#73bccc"
         id="path160"
         style="stroke-width:1.19008" /><path
         d="m 230.59253,503.03363 c 2.32303,1.21935 2.32303,1.21935 2.32303,1.21935 z"
         fill="#556161"
         id="path172"
         style="stroke-width:1.19008" /><path
         d="m 333.96724,440.84688 c 2.32303,1.21935 2.32303,1.21935 2.32303,1.21935 z"
         fill="#1a4458"
         id="path174"
         style="stroke-width:1.19008" /><path
         d="m 357.19751,403.04709 c 2.32303,1.21934 2.32303,1.21934 2.32303,1.21934 z"
         fill="#21465e"
         id="path180"
         style="stroke-width:1.19008" /><path
         d="m 367.65114,390.8536 c 2.32302,1.21935 2.32302,1.21935 2.32302,1.21935 z"
         fill="#1c455b"
         id="path183"
         style="stroke-width:1.19008" /><path
         d="m 385.07384,361.58925 c 2.32303,1.21935 2.32303,1.21935 2.32303,1.21935 z"
         fill="#204860"
         id="path186"
         style="stroke-width:1.19008" /><path
         d="m 281.69913,326.22815 c 2.32303,1.21935 2.32303,1.21935 2.32303,1.21935 z"
         fill="#20719e"
         id="path189"
         style="stroke-width:1.19008" /><path
         d="m 282.86064,322.57011 c 2.32303,1.21935 2.32303,1.21935 2.32303,1.21935 z"
         fill="#1d709d"
         id="path190"
         style="stroke-width:1.19008" /><path
         d="m 330.4827,288.42836 c 2.32303,1.21935 2.32303,1.21935 2.32303,1.21935 z"
         fill="#2274a0"
         id="path197"
         style="stroke-width:1.19008" /><path
         d="m 339.77481,283.55097 c 2.32303,1.21935 2.32303,1.21935 2.32303,1.21935 z"
         fill="#22729b"
         id="path199"
         style="stroke-width:1.19008" /><path
         d="m 426.88833,223.80291 c 2.32303,1.21935 2.32303,1.21935 2.32303,1.21935 z"
         fill="#2b5567"
         id="path207"
         style="stroke-width:1.19008" /><path
         d="m 227.10799,177.46768 c 2.32303,1.21935 2.32303,1.21935 2.32303,1.21935 z"
         fill="#66b5d0"
         id="path215"
         style="stroke-width:1.19008" /><path
         d="m 304.9294,161.61616 c 2.32303,1.21934 2.32303,1.21934 2.32303,1.21934 z"
         fill="#3ba9db"
         id="path219"
         style="stroke-width:1.19008" /><path
         d="m 187.61653,155.51942 c 2.32302,1.21934 2.32302,1.21934 2.32302,1.21934 z"
         fill="#e7a939"
         id="path221"
         style="stroke-width:1.19008" /><path
         d="m 414.11168,145.76463 c 2.32303,1.21935 2.32303,1.21935 2.32303,1.21935 z"
         fill="#3d646e"
         id="path224"
         style="stroke-width:1.19008" /><path
         d="m 254.98432,107.96484 c 2.32302,1.21935 2.32302,1.21935 2.32302,1.21935 z"
         fill="#68bad0"
         id="path230"
         style="stroke-width:1.19008" /><path
         d="m 231.75404,79.919831 c 2.32303,1.219348 2.32303,1.219348 2.32303,1.219348 z"
         fill="#deb343"
         id="path233"
         style="stroke-width:1.19008" /><path
         d="m 282.86064,0.66220255 c 2.32303,1.21934815 2.32303,1.21934815 2.32303,1.21934815 z"
         fill="#88beb9"
         id="path241"
         style="stroke-width:1.19008" /><path
         d="m 290.99124,-24.944108 c 2.32303,1.219348 2.32303,1.219348 2.32303,1.219348 z"
         fill="#8cb9b1"
         id="path244"
         style="stroke-width:1.19008" /><text
         xml:space="preserve"
         style="font-style:normal;font-variant:normal;font-weight:normal;font-stretch:normal;font-size:708.504px;font-family:Arial;-inkscape-font-specification:Arial;text-align:start;writing-mode:lr-tb;direction:ltr;text-anchor:start;fill:#e6e6e6;stroke-width:22.1408"
         x="656.12567"
         y="490.78647"
         id="text1"
         transform="scale(0.93175066,1.0732485)"><tspan
           sodipodi:role="line"
           id="tspan1"
           style="font-style:normal;font-variant:normal;font-weight:normal;font-stretch:normal;font-size:708.504px;font-family:Arial;-inkscape-font-specification:Arial;stroke-width:22.1408"
           x="656.12567"
           y="490.78647">Pyragogy</tspan></text></g></g></svg>
